<?xml version="1.0" encoding="UTF-8"?>
<!DOCTYPE svg PUBLIC "-//W3C//DTD SVG 1.1//EN" "http://www.w3.org/Graphics/SVG/1.1/DTD/svg11.dtd">
<svg xmlns="http://www.w3.org/2000/svg" version="1.1" width="187px" height="92px" style="shape-rendering:geometricPrecision; text-rendering:geometricPrecision; image-rendering:optimizeQuality; fill-rule:evenodd; clip-rule:evenodd" xmlns:xlink="http://www.w3.org/1999/xlink">
<g><path style="opacity:1" fill="#3d3d3d" d="M 76.5,15.5 C 78.2624,16.2623 79.2624,17.5956 79.5,19.5C 81.0169,23.3702 82.6836,27.2036 84.5,31C 84.4301,31.7648 84.0967,32.2648 83.5,32.5C 83.5,32.1667 83.5,31.8333 83.5,31.5C 79.6408,23.9701 74.3075,17.6367 67.5,12.5C 58.3545,5.62835 48.0212,3.12835 36.5,5C 32.8368,5.57165 29.5035,6.73832 26.5,8.5C 20.952,10.3961 16.6187,13.7294 13.5,18.5C 4.23763,25.7796 0.237629,35.4462 1.5,47.5C 1.5,48.1667 1.16667,48.5 0.5,48.5C -0.594559,33.3658 4.40544,20.6991 15.5,10.5C 37.1073,-4.07523 57.4407,-2.40856 76.5,15.5 Z"/></g>
<g><path style="opacity:1" fill="#6e6c6b" d="M 67.5,12.5 C 65.5005,13.6259 63.5005,13.7925 61.5,13C 65.7342,15.7319 69.0675,19.2319 71.5,23.5C 60.056,10.799 46.056,6.799 29.5,11.5C 29.9175,10.7784 30.5842,10.2784 31.5,10C 29.8455,9.39233 28.1789,8.89233 26.5,8.5C 29.5035,6.73832 32.8368,5.57165 36.5,5C 48.0212,3.12835 58.3545,5.62835 67.5,12.5 Z"/></g>
<g><path style="opacity:1" fill="#fb9009" d="M 71.5,23.5 C 80.4066,41.2443 77.74,56.911 63.5,70.5C 55.2357,75.4809 46.2357,77.4809 36.5,76.5C 27.4254,73.9695 20.092,68.9695 14.5,61.5C 7.92918,49.4026 7.92918,37.4026 14.5,25.5C 14.5,25.1667 14.5,24.8333 14.5,24.5C 18.8991,19.4681 23.8991,15.1347 29.5,11.5C 46.056,6.799 60.056,10.799 71.5,23.5 Z"/></g>
<g><path style="opacity:1" fill="#797a7b" d="M 87.5,10.5 C 98.8333,10.5 110.167,10.5 121.5,10.5C 122.167,11.5 122.833,12.5 123.5,13.5C 112.167,13.5 100.833,13.5 89.5,13.5C 88.8333,12.5 88.1667,11.5 87.5,10.5 Z"/></g>
<g><path style="opacity:1" fill="#b8b9ba" d="M 121.5,10.5 C 128.5,10.5 135.5,10.5 142.5,10.5C 141.167,11.5 141.167,12.5 142.5,13.5C 136.167,13.5 129.833,13.5 123.5,13.5C 122.833,12.5 122.167,11.5 121.5,10.5 Z"/></g>
<g><path style="opacity:1" fill="#b2b3b4" d="M 31.5,-0.5 C 39.5,-0.5 47.5,-0.5 55.5,-0.5C 62.061,2.4502 68.3943,5.9502 74.5,10C 78.8206,10.499 83.1539,10.6657 87.5,10.5C 88.1667,11.5 88.8333,12.5 89.5,13.5C 85.2984,13.1832 81.2984,13.5166 77.5,14.5C 76.8333,14.5 76.5,14.8333 76.5,15.5C 57.4407,-2.40856 37.1073,-4.07523 15.5,10.5C 14.8333,10.5 14.5,10.1667 14.5,9.5C 19.4086,4.87901 25.0752,1.54568 31.5,-0.5 Z"/></g>
<g><path style="opacity:1" fill="#d7d8d9" d="M 142.5,10.5 C 148.5,10.5 154.5,10.5 160.5,10.5C 162.158,11.1814 163.825,12.0147 165.5,13C 157.841,13.4997 150.174,13.6664 142.5,13.5C 141.167,12.5 141.167,11.5 142.5,10.5 Z"/></g>
<g><path style="opacity:1" fill="#c5bcab" d="M 160.5,10.5 C 164.182,10.3347 167.848,10.5014 171.5,11C 173.747,12.2775 175.747,13.7775 177.5,15.5C 181.006,20.1707 182.672,25.504 182.5,31.5C 181.542,31.0472 180.708,30.3805 180,29.5C 179.5,38.8274 179.334,48.1607 179.5,57.5C 179.784,59.4147 179.451,61.0813 178.5,62.5C 178.5,54.1667 178.5,45.8333 178.5,37.5C 181.268,27.0874 177.934,19.5874 168.5,15C 138.502,14.5 108.502,14.3334 78.5,14.5C 78.1667,14.5 77.8333,14.5 77.5,14.5C 81.2984,13.5166 85.2984,13.1832 89.5,13.5C 100.833,13.5 112.167,13.5 123.5,13.5C 129.833,13.5 136.167,13.5 142.5,13.5C 150.174,13.6664 157.841,13.4997 165.5,13C 163.825,12.0147 162.158,11.1814 160.5,10.5 Z"/></g>
<g><path style="opacity:1" fill="#93908e" d="M 26.5,8.5 C 28.1789,8.89233 29.8455,9.39233 31.5,10C 30.5842,10.2784 29.9175,10.7784 29.5,11.5C 23.8991,15.1347 18.8991,19.4681 14.5,24.5C 14.5106,22.9826 15.1772,21.8159 16.5,21C 15.3094,20.3021 14.3094,19.4687 13.5,18.5C 16.6187,13.7294 20.952,10.3961 26.5,8.5 Z"/></g>
<g><path style="opacity:1" fill="#fc9205" d="M 78.5,14.5 C 108.502,14.3334 138.502,14.5 168.5,15C 177.934,19.5874 181.268,27.0874 178.5,37.5C 177.167,37.5 175.833,37.5 174.5,37.5C 174.784,35.5853 174.451,33.9187 173.5,32.5C 173.34,30.847 172.674,29.5137 171.5,28.5C 171.5,27.8333 171.167,27.5 170.5,27.5C 170.573,25.9731 169.906,24.9731 168.5,24.5C 167.118,23.1995 165.452,22.3661 163.5,22C 136.835,21.5 110.169,21.3334 83.5,21.5C 82.2141,18.883 80.5475,16.5496 78.5,14.5 Z"/></g>
<g><path style="opacity:1" fill="#bd6e07" d="M 76.5,15.5 C 76.5,14.8333 76.8333,14.5 77.5,14.5C 77.8333,14.5 78.1667,14.5 78.5,14.5C 80.5475,16.5496 82.2141,18.883 83.5,21.5C 81.9382,21.2671 80.6049,20.6005 79.5,19.5C 79.2624,17.5956 78.2624,16.2623 76.5,15.5 Z"/></g>
<g><path style="opacity:1" fill="#fec886" d="M 59.5,19.5 C 48.6536,19.8278 37.9869,19.4944 27.5,18.5C 31.7215,15.3259 36.5549,13.9925 42,14.5C 48.5729,14.0967 54.4062,15.7634 59.5,19.5 Z"/></g>
<g><path style="opacity:1" fill="#febb67" d="M 27.5,18.5 C 37.9869,19.4944 48.6536,19.8278 59.5,19.5C 60.4916,19.3284 61.1583,19.6618 61.5,20.5C 55.6762,21.1662 49.6762,21.4995 43.5,21.5C 37.1275,21.496 31.1275,20.8293 25.5,19.5C 26.1667,19.1667 26.8333,18.8333 27.5,18.5 Z"/></g>
<g><path style="opacity:1" fill="#939292" d="M 67.5,12.5 C 74.3075,17.6367 79.6408,23.9701 83.5,31.5C 82.5,31.5 81.5,31.5 80.5,31.5C 80.5,38.5 80.5,45.5 80.5,52.5C 81.9587,52.5674 83.2921,52.2341 84.5,51.5C 84.631,52.2389 84.4643,52.9056 84,53.5C 82.6976,54.0848 81.531,54.7515 80.5,55.5C 77.7426,63.0295 73.0759,69.0295 66.5,73.5C 64.8941,72.6409 63.2275,72.4742 61.5,73C 62.3805,72.2917 63.0472,71.4584 63.5,70.5C 77.74,56.911 80.4066,41.2443 71.5,23.5C 69.0675,19.2319 65.7342,15.7319 61.5,13C 63.5005,13.7925 65.5005,13.6259 67.5,12.5 Z"/></g>
<g><path style="opacity:1" fill="#feaf4c" d="M 25.5,19.5 C 31.1275,20.8293 37.1275,21.496 43.5,21.5C 49.6762,21.4995 55.6762,21.1662 61.5,20.5C 62.8118,21.1451 63.8118,22.1451 64.5,23.5C 52.0066,24.1667 39.6732,24.8333 27.5,25.5C 25.8333,25.5 24.1667,25.5 22.5,25.5C 21.7896,22.9142 22.7896,20.9142 25.5,19.5 Z"/></g>
<g><path style="opacity:1" fill="#fbcc91" d="M 83.5,21.5 C 110.169,21.3334 136.835,21.5 163.5,22C 165.452,22.3661 167.118,23.1995 168.5,24.5C 155.35,25.8326 141.85,26.4993 128,26.5C 113.862,26.1509 100.029,26.1509 86.5,26.5C 86.1667,26.5 85.8333,26.5 85.5,26.5C 84.6908,24.9724 84.0241,23.3057 83.5,21.5 Z"/></g>
<g><path style="opacity:1" fill="#f5ede5" d="M 22.5,25.5 C 24.1667,25.5 25.8333,25.5 27.5,25.5C 28.4959,25.4142 29.3292,25.7476 30,26.5C 30.4396,28.8659 30.9396,31.1992 31.5,33.5C 33.0882,38.6839 34.7548,43.8506 36.5,49C 45.8274,49.4998 55.1607,49.6665 64.5,49.5C 54.6806,50.494 44.6806,50.8274 34.5,50.5C 32.0421,43.289 29.8754,35.9557 28,28.5C 25.6742,28.12 23.8409,27.12 22.5,25.5 Z"/></g>
<g><path style="opacity:1" fill="#fac073" d="M 168.5,24.5 C 169.906,24.9731 170.573,25.9731 170.5,27.5C 143.167,28.1667 115.833,28.8333 88.5,29.5C 87.5987,28.7095 86.9321,27.7095 86.5,26.5C 100.029,26.1509 113.862,26.1509 128,26.5C 141.85,26.4993 155.35,25.8326 168.5,24.5 Z"/></g>
<g><path style="opacity:0.759" fill="#9d9d9c" d="M 177.5,15.5 C 180.243,17.2393 182.243,19.5726 183.5,22.5C 184.596,36.4744 184.762,50.4744 184,64.5C 183.428,70.6818 180.261,74.6818 174.5,76.5C 175.476,75.1851 176.476,73.8518 177.5,72.5C 176.311,71.5713 174.978,71.238 173.5,71.5C 174.833,69.8333 176.167,68.1667 177.5,66.5C 177.833,65.1667 178.167,63.8333 178.5,62.5C 179.451,61.0813 179.784,59.4147 179.5,57.5C 180.458,57.9528 181.292,58.6195 182,59.5C 182.5,50.1726 182.666,40.8393 182.5,31.5C 182.672,25.504 181.006,20.1707 177.5,15.5 Z"/></g>
<g><path style="opacity:1" fill="#f9b75f" d="M 170.5,27.5 C 171.167,27.5 171.5,27.8333 171.5,28.5C 158.183,29.8326 144.517,30.4993 130.5,30.5C 116.427,30.4917 102.427,30.1584 88.5,29.5C 115.833,28.8333 143.167,28.1667 170.5,27.5 Z"/></g>
<g><path style="opacity:1" fill="#bbbdbe" d="M 13.5,18.5 C 14.3094,19.4687 15.3094,20.3021 16.5,21C 15.1772,21.8159 14.5106,22.9826 14.5,24.5C 14.5,24.8333 14.5,25.1667 14.5,25.5C 12.9755,26.1738 11.6422,27.1738 10.5,28.5C 7.46954,39.0112 7.96954,49.3445 12,59.5C 12.7083,60.3805 13.5416,61.0472 14.5,61.5C 15.4629,63.642 15.1296,65.642 13.5,67.5C 12.2058,66.7101 11.0391,65.7101 10,64.5C 7.57161,58.3499 4.73828,52.6832 1.5,47.5C 0.237629,35.4462 4.23763,25.7796 13.5,18.5 Z"/></g>
<g><path style="opacity:0.776" fill="#909192" d="M 14.5,9.5 C 14.5,10.1667 14.8333,10.5 15.5,10.5C 4.40544,20.6991 -0.594559,33.3658 0.5,48.5C 0.273907,51.2492 0.60724,53.9159 1.5,56.5C 1.04311,57.2975 0.376442,57.6309 -0.5,57.5C -0.5,48.8333 -0.5,40.1667 -0.5,31.5C 2.09404,22.5647 7.09404,15.2313 14.5,9.5 Z"/></g>
<g><path style="opacity:1" fill="#f5a940" d="M 171.5,28.5 C 172.674,29.5137 173.34,30.847 173.5,32.5C 161.033,34.16 148.366,35.16 135.5,35.5C 134.167,35.5 132.833,35.5 131.5,35.5C 131.799,37.604 131.466,39.604 130.5,41.5C 129.893,41.3764 129.56,41.0431 129.5,40.5C 130.461,38.7354 130.795,36.7354 130.5,34.5C 123.313,34.1755 116.313,34.5088 109.5,35.5C 108.167,35.5 106.833,35.5 105.5,35.5C 100.695,34.5128 95.6946,34.1795 90.5,34.5C 90.7148,32.8212 90.0481,31.8212 88.5,31.5C 88.5,30.8333 88.5,30.1667 88.5,29.5C 102.427,30.1584 116.427,30.4917 130.5,30.5C 144.517,30.4993 158.183,29.8326 171.5,28.5 Z"/></g>
<g><path style="opacity:1" fill="#f4efe8" d="M 33.5,33.5 C 35.4147,33.2155 37.0813,33.5489 38.5,34.5C 37.4479,36.256 35.7812,36.9227 33.5,36.5C 33.5,35.5 33.5,34.5 33.5,33.5 Z"/></g>
<g><path style="opacity:1" fill="#f5ede4" d="M 39.5,34.5 C 43.0057,33.502 46.6724,33.502 50.5,34.5C 49.3064,35.7773 47.6397,36.4439 45.5,36.5C 43.2147,36.3241 41.2147,35.6574 39.5,34.5 Z"/></g>
<g><path style="opacity:1" fill="#e1dedb" d="M 52.5,34.5 C 54.099,34.2322 55.4324,34.5655 56.5,35.5C 56.0831,36.1239 55.4164,36.4573 54.5,36.5C 53.2867,36.2528 52.62,35.5862 52.5,34.5 Z"/></g>
<g><path style="opacity:1" fill="#e7d2bb" d="M 62.5,35.5 C 61.0813,36.4511 59.4147,36.7845 57.5,36.5C 57.5,36.1667 57.5,35.8333 57.5,35.5C 59.1667,34.1667 60.8333,34.1667 62.5,35.5 Z"/></g>
<g><path style="opacity:1" fill="#faf8f5" d="M 57.5,37.5 C 59.1667,37.5 60.8333,37.5 62.5,37.5C 62.5,38.5 62.5,39.5 62.5,40.5C 60.8333,40.5 59.1667,40.5 57.5,40.5C 57.5,39.5 57.5,38.5 57.5,37.5 Z"/></g>
<g><path style="opacity:1" fill="#be8947" d="M 62.5,35.5 C 63.8333,37.5 63.8333,39.5 62.5,41.5C 60.8333,41.5 59.1667,41.5 57.5,41.5C 57.5,41.1667 57.5,40.8333 57.5,40.5C 59.1667,40.5 60.8333,40.5 62.5,40.5C 62.5,39.5 62.5,38.5 62.5,37.5C 60.8333,37.5 59.1667,37.5 57.5,37.5C 57.5,37.1667 57.5,36.8333 57.5,36.5C 59.4147,36.7845 61.0813,36.4511 62.5,35.5 Z"/></g>
<g><path style="opacity:1" fill="#f1eeeb" d="M 57.5,41.5 C 59.1667,41.5 60.8333,41.5 62.5,41.5C 62.5,41.8333 62.5,42.1667 62.5,42.5C 62.5,44.5 62.5,46.5 62.5,48.5C 60.8333,48.5 59.1667,48.5 57.5,48.5C 57.5,46.1667 57.5,43.8333 57.5,41.5 Z"/></g>
<g><path style="opacity:1" fill="#dcddde" d="M 182.5,31.5 C 182.666,40.8393 182.5,50.1726 182,59.5C 181.292,58.6195 180.458,57.9528 179.5,57.5C 179.334,48.1607 179.5,38.8274 180,29.5C 180.708,30.3805 181.542,31.0472 182.5,31.5 Z"/></g>
<g><path style="opacity:1" fill="#c4c6c7" d="M 83.5,31.5 C 83.5,31.8333 83.5,32.1667 83.5,32.5C 85.4804,38.7281 85.8138,45.0614 84.5,51.5C 83.2921,52.2341 81.9587,52.5674 80.5,52.5C 80.5,45.5 80.5,38.5 80.5,31.5C 81.5,31.5 82.5,31.5 83.5,31.5 Z"/></g>
<g><path style="opacity:1" fill="#e78a06" d="M 173.5,32.5 C 174.451,33.9187 174.784,35.5853 174.5,37.5C 175.833,37.5 177.167,37.5 178.5,37.5C 178.5,45.8333 178.5,54.1667 178.5,62.5C 178.167,63.8333 177.833,65.1667 177.5,66.5C 177.43,63.7851 177.097,60.9517 176.5,58C 149.167,57.6667 121.833,57.3333 94.5,57C 93.8903,55.0528 93.0569,53.2194 92,51.5C 91.7418,45.7848 91.2418,40.1181 90.5,34.5C 95.6946,34.1795 100.695,34.5128 105.5,35.5C 101.938,37.2268 100.271,40.0601 100.5,44C 100.198,52.3923 103.865,55.3923 111.5,53C 115.976,46.4472 115.31,40.6139 109.5,35.5C 116.313,34.5088 123.313,34.1755 130.5,34.5C 130.795,36.7354 130.461,38.7354 129.5,40.5C 127.61,40.2965 126.11,40.9632 125,42.5C 122.312,52.1736 125.812,56.1736 135.5,54.5C 135.5,48.1667 135.5,41.8333 135.5,35.5C 148.366,35.16 161.033,34.16 173.5,32.5 Z"/></g>
<g><path style="opacity:1" fill="#ece9e7" d="M 155.5,40.5 C 158.078,42.1258 157.912,43.7924 155,45.5C 154.502,48.4816 154.335,51.4816 154.5,54.5C 153.167,54.5 151.833,54.5 150.5,54.5C 150.5,50.1667 150.5,45.8333 150.5,41.5C 152.415,41.7845 154.081,41.4511 155.5,40.5 Z"/></g>
<g><path style="opacity:1" fill="#f0bd71" d="M 155.5,40.5 C 154.081,41.4511 152.415,41.7845 150.5,41.5C 150.5,45.8333 150.5,50.1667 150.5,54.5C 149.514,50.03 149.181,45.3633 149.5,40.5C 151.5,40.5 153.5,40.5 155.5,40.5 Z"/></g>
<g><path style="opacity:1" fill="#f1eeeb" d="M 116.5,40.5 C 118.584,41.2483 120.584,41.2483 122.5,40.5C 123.777,42.6297 123.277,44.2964 121,45.5C 120.502,48.4816 120.335,51.4816 120.5,54.5C 119.167,54.5 117.833,54.5 116.5,54.5C 116.5,49.8333 116.5,45.1667 116.5,40.5 Z"/></g>
<g><path style="opacity:1" fill="#f9f5f0" d="M 147.5,44.5 C 147.5,45.8333 147.5,47.1667 147.5,48.5C 145.396,48.2011 143.396,48.5344 141.5,49.5C 142.808,50.6256 144.142,50.6256 145.5,49.5C 148.106,50.8499 148.106,52.3499 145.5,54C 141.834,55.271 139.334,54.1044 138,50.5C 136.176,43.6724 138.676,40.5058 145.5,41C 146.823,41.8159 147.489,42.9826 147.5,44.5 Z"/></g>
<g><path style="opacity:1" fill="#f6f2eb" d="M 105.5,35.5 C 106.833,35.5 108.167,35.5 109.5,35.5C 115.31,40.6139 115.976,46.4472 111.5,53C 103.865,55.3923 100.198,52.3923 100.5,44C 100.271,40.0601 101.938,37.2268 105.5,35.5 Z"/></g>
<g><path style="opacity:1" fill="#dd8b1c" d="M 106.5,39.5 C 107.496,39.4142 108.329,39.7476 109,40.5C 109.667,43.5 109.667,46.5 109,49.5C 107.413,50.727 106.079,50.3937 105,48.5C 104.068,45.1769 104.568,42.1769 106.5,39.5 Z"/></g>
<g><path style="opacity:1" fill="#f2f0ec" d="M 135.5,35.5 C 135.5,41.8333 135.5,48.1667 135.5,54.5C 125.812,56.1736 122.312,52.1736 125,42.5C 126.11,40.9632 127.61,40.2965 129.5,40.5C 129.56,41.0431 129.893,41.3764 130.5,41.5C 131.466,39.604 131.799,37.604 131.5,35.5C 132.833,35.5 134.167,35.5 135.5,35.5 Z"/></g>
<g><path style="opacity:1" fill="#cc903e" d="M 141.5,43.5 C 143.983,43.73 144.483,44.3966 143,45.5C 141.97,45.1639 141.47,44.4972 141.5,43.5 Z"/></g>
<g><path style="opacity:1" fill="#d98e28" d="M 128.5,44.5 C 129.5,44.5 130.5,44.5 131.5,44.5C 131.949,46.9775 131.283,48.9775 129.5,50.5C 128.534,48.604 128.201,46.604 128.5,44.5 Z"/></g>
<g><path style="opacity:1" fill="#797067" d="M 14.5,25.5 C 7.92918,37.4026 7.92918,49.4026 14.5,61.5C 13.5416,61.0472 12.7083,60.3805 12,59.5C 7.96954,49.3445 7.46954,39.0112 10.5,28.5C 11.6422,27.1738 12.9755,26.1738 14.5,25.5 Z"/></g>
<g><path style="opacity:1" fill="#e59d44" d="M 31.5,33.5 C 32.1667,33.5 32.8333,33.5 33.5,33.5C 33.5,34.5 33.5,35.5 33.5,36.5C 35.7812,36.9227 37.4479,36.256 38.5,34.5C 38.8333,34.5 39.1667,34.5 39.5,34.5C 41.2147,35.6574 43.2147,36.3241 45.5,36.5C 47.6397,36.4439 49.3064,35.7773 50.5,34.5C 51.1667,34.5 51.8333,34.5 52.5,34.5C 52.62,35.5862 53.2867,36.2528 54.5,36.5C 55.4164,36.4573 56.0831,36.1239 56.5,35.5C 56.8333,35.5 57.1667,35.5 57.5,35.5C 57.5,35.8333 57.5,36.1667 57.5,36.5C 57.5,36.8333 57.5,37.1667 57.5,37.5C 57.5,38.5 57.5,39.5 57.5,40.5C 57.5,40.8333 57.5,41.1667 57.5,41.5C 57.5,43.8333 57.5,46.1667 57.5,48.5C 59.1667,48.5 60.8333,48.5 62.5,48.5C 62.5,46.5 62.5,44.5 62.5,42.5C 63.2679,44.7146 63.9346,47.0479 64.5,49.5C 55.1607,49.6665 45.8274,49.4998 36.5,49C 34.7548,43.8506 33.0882,38.6839 31.5,33.5 Z"/></g>
<g><path style="opacity:1" fill="#81715d" d="M 55.5,41.5 C 56.4682,43.6074 56.8016,45.9407 56.5,48.5C 53.9407,48.8016 51.6074,48.4682 49.5,47.5C 51.5,47.5 53.5,47.5 55.5,47.5C 55.5,45.5 55.5,43.5 55.5,41.5 Z"/></g>
<g><path style="opacity:1" fill="#78644d" d="M 48.5,46.5 C 48.38,47.5862 47.7133,48.2528 46.5,48.5C 45.5836,48.4573 44.9169,48.1239 44.5,47.5C 45.9587,47.5674 47.2921,47.2341 48.5,46.5 Z"/></g>
<g><path style="opacity:1" fill="#887966" d="M 42.5,46.5 C 43.0431,46.56 43.3764,46.8933 43.5,47.5C 41.3635,48.7928 39.3635,48.7928 37.5,47.5C 39.4147,47.7845 41.0813,47.4511 42.5,46.5 Z"/></g>
<g><path style="opacity:1" fill="#fdf9f5" d="M 55.5,41.5 C 55.5,43.5 55.5,45.5 55.5,47.5C 53.5,47.5 51.5,47.5 49.5,47.5C 49.3781,43.1617 49.0447,42.8284 48.5,46.5C 47.2921,47.2341 45.9587,47.5674 44.5,47.5C 43.5448,45.2543 42.8782,42.921 42.5,40.5C 45.3938,40.0423 47.8938,40.709 50,42.5C 51.6995,41.5939 53.5328,41.2606 55.5,41.5 Z"/></g>
<g><path style="opacity:1" fill="#fbf8f5" d="M 35.5,40.5 C 37.1667,40.5 38.8333,40.5 40.5,40.5C 41.3627,42.4214 42.0293,44.4214 42.5,46.5C 41.0813,47.4511 39.4147,47.7845 37.5,47.5C 36.3882,45.4006 35.7215,43.0673 35.5,40.5 Z"/></g>
<g><path style="opacity:1" fill="#d3b796" d="M 40.5,40.5 C 38.8333,40.5 37.1667,40.5 35.5,40.5C 34.596,39.791 34.2627,38.791 34.5,37.5C 36.1992,37.3398 37.8659,37.5065 39.5,38C 40.2524,38.6708 40.5858,39.5041 40.5,40.5 Z"/></g>
<g><path style="opacity:1" fill="#e6e5e5" d="M 51.5,37.5 C 53.1667,37.5 54.8333,37.5 56.5,37.5C 56.5,38.5 56.5,39.5 56.5,40.5C 54.8333,40.5 53.1667,40.5 51.5,40.5C 51.5,39.5 51.5,38.5 51.5,37.5 Z"/></g>
<g><path style="opacity:1" fill="#f4f4f3" d="M 41.5,37.5 C 44.2469,37.1866 46.9135,37.52 49.5,38.5C 48.1667,38.8333 46.8333,39.1667 45.5,39.5C 43.6672,39.4146 42.3339,38.7479 41.5,37.5 Z"/></g>
<g><path style="opacity:1" fill="#a16f2e" d="M 147.5,44.5 C 148.451,45.9187 148.784,47.5853 148.5,49.5C 147.5,49.5 146.5,49.5 145.5,49.5C 144.142,50.6256 142.808,50.6256 141.5,49.5C 143.396,48.5344 145.396,48.2011 147.5,48.5C 147.5,47.1667 147.5,45.8333 147.5,44.5 Z"/></g>
<g><path style="opacity:1" fill="#c6c2be" d="M 64.5,49.5 C 65.3382,49.8417 65.6716,50.5084 65.5,51.5C 55.5,51.5 45.5,51.5 35.5,51.5C 34.8333,51.5 34.5,51.1667 34.5,50.5C 44.6806,50.8274 54.6806,50.494 64.5,49.5 Z"/></g>
<g><path style="opacity:1" fill="#c37511" d="M 35.5,51.5 C 45.5,51.5 55.5,51.5 65.5,51.5C 63.3926,52.4682 61.0593,52.8016 58.5,52.5C 57.8333,52.5 57.1667,52.5 56.5,52.5C 52.2984,52.1832 48.2984,52.5166 44.5,53.5C 43.609,52.8902 42.609,52.5569 41.5,52.5C 39.2646,52.7947 37.2646,52.4614 35.5,51.5 Z"/></g>
<g><path style="opacity:1" fill="#eaded2" d="M 41.5,52.5 C 42.609,52.5569 43.609,52.8902 44.5,53.5C 47.361,56.1513 46.861,58.1513 43,59.5C 39.0647,57.8669 38.5647,55.5336 41.5,52.5 Z"/></g>
<g><path style="opacity:1" fill="#eee5dc" d="M 56.5,52.5 C 57.1667,52.5 57.8333,52.5 58.5,52.5C 61.2866,55.1993 61.1199,57.5327 58,59.5C 54.0647,57.8669 53.5647,55.5336 56.5,52.5 Z"/></g>
<g><path style="opacity:1" fill="#8b5a19" d="M 85.5,26.5 C 85.8333,26.5 86.1667,26.5 86.5,26.5C 86.9321,27.7095 87.5987,28.7095 88.5,29.5C 88.5,30.1667 88.5,30.8333 88.5,31.5C 88.5,32.1667 88.5,32.8333 88.5,33.5C 87.8334,41.0104 87.1667,48.6771 86.5,56.5C 85.8182,57.2427 85.1515,57.9094 84.5,58.5C 86.8028,47.9291 87.1361,37.2624 85.5,26.5 Z"/></g>
<g><path style="opacity:1" fill="#686665" d="M 79.5,19.5 C 80.6049,20.6005 81.9382,21.2671 83.5,21.5C 84.0241,23.3057 84.6908,24.9724 85.5,26.5C 87.1361,37.2624 86.8028,47.9291 84.5,58.5C 81.9726,64.3556 78.306,69.5222 73.5,74C 74.0944,74.4643 74.7611,74.631 75.5,74.5C 81.6534,75.3279 87.9867,75.8279 94.5,76C 95.1667,76.6667 95.8333,77.3333 96.5,78C 89.654,78.1717 82.9874,78.6717 76.5,79.5C 73.0977,79.3424 69.7644,79.6758 66.5,80.5C 66.9528,79.5416 67.6195,78.7083 68.5,78C 67.9056,77.5357 67.2389,77.369 66.5,77.5C 74.2041,71.9606 79.8708,64.7939 83.5,56C 82.552,55.5172 81.552,55.3505 80.5,55.5C 81.531,54.7515 82.6976,54.0848 84,53.5C 84.4643,52.9056 84.631,52.2389 84.5,51.5C 85.8138,45.0614 85.4804,38.7281 83.5,32.5C 84.0967,32.2648 84.4301,31.7648 84.5,31C 82.6836,27.2036 81.0169,23.3702 79.5,19.5 Z"/></g>
<g><path style="opacity:1" fill="#a35f02" d="M 88.5,33.5 C 91.9165,45.5219 90.7498,57.1885 85,68.5C 82.9604,70.3702 81.1271,72.3702 79.5,74.5C 78.1667,74.5 76.8333,74.5 75.5,74.5C 74.7611,74.631 74.0944,74.4643 73.5,74C 78.306,69.5222 81.9726,64.3556 84.5,58.5C 85.1515,57.9094 85.8182,57.2427 86.5,56.5C 87.1667,48.6771 87.8334,41.0104 88.5,33.5 Z"/></g>
<g><path style="opacity:1" fill="#dc7e01" d="M 88.5,31.5 C 90.0481,31.8212 90.7148,32.8212 90.5,34.5C 91.2418,40.1181 91.7418,45.7848 92,51.5C 93.0569,53.2194 93.8903,55.0528 94.5,57C 121.833,57.3333 149.167,57.6667 176.5,58C 177.097,60.9517 177.43,63.7851 177.5,66.5C 176.167,68.1667 174.833,69.8333 173.5,71.5C 169.942,73.9679 165.942,74.9679 161.5,74.5C 157.5,74.5 153.5,74.5 149.5,74.5C 137.833,74.5 126.167,74.5 114.5,74.5C 102.833,74.5 91.1667,74.5 79.5,74.5C 81.1271,72.3702 82.9604,70.3702 85,68.5C 90.7498,57.1885 91.9165,45.5219 88.5,33.5C 88.5,32.8333 88.5,32.1667 88.5,31.5 Z"/></g>
<g><path style="opacity:0.412" fill="#cacaca" d="M 183.5,22.5 C 184.728,23.3065 185.728,24.3065 186.5,25.5C 186.5,40.5 186.5,55.5 186.5,70.5C 186.167,70.5 185.833,70.5 185.5,70.5C 182.694,72.475 180.361,74.975 178.5,78C 176.655,79.128 174.655,79.628 172.5,79.5C 173.551,78.7777 174.218,77.7777 174.5,76.5C 180.261,74.6818 183.428,70.6818 184,64.5C 184.762,50.4744 184.596,36.4744 183.5,22.5 Z"/></g>
<g><path style="opacity:1" fill="#4b4a4c" d="M 1.5,47.5 C 4.73828,52.6832 7.57161,58.3499 10,64.5C 11.0391,65.7101 12.2058,66.7101 13.5,67.5C 15.8797,70.8805 18.8797,73.5472 22.5,75.5C 33.4714,82.064 45.1381,83.2307 57.5,79C 60.752,77.4339 63.752,75.6006 66.5,73.5C 73.0759,69.0295 77.7426,63.0295 80.5,55.5C 81.552,55.3505 82.552,55.5172 83.5,56C 79.8708,64.7939 74.2041,71.9606 66.5,77.5C 44.2332,88.1791 24.8999,84.3458 8.5,66C 7.55198,65.5172 6.55198,65.3505 5.5,65.5C 4.53416,62.5314 2.86749,60.198 0.5,58.5C 0.166667,58.5 -0.166667,58.5 -0.5,58.5C -0.5,58.1667 -0.5,57.8333 -0.5,57.5C 0.376442,57.6309 1.04311,57.2975 1.5,56.5C 0.60724,53.9159 0.273907,51.2492 0.5,48.5C 1.16667,48.5 1.5,48.1667 1.5,47.5 Z"/></g>
<g><path style="opacity:1" fill="#999796" d="M 14.5,61.5 C 20.092,68.9695 27.4254,73.9695 36.5,76.5C 38.9686,77.3171 41.6353,77.8171 44.5,78C 37.9344,78.984 31.7677,77.8174 26,74.5C 24.8615,74.9891 23.6948,75.3225 22.5,75.5C 18.8797,73.5472 15.8797,70.8805 13.5,67.5C 15.1296,65.642 15.4629,63.642 14.5,61.5 Z"/></g>
<g><path style="opacity:1" fill="#88898b" d="M 5.5,65.5 C 6.55198,65.3505 7.55198,65.5172 8.5,66C 24.8999,84.3458 44.2332,88.1791 66.5,77.5C 67.2389,77.369 67.9056,77.5357 68.5,78C 67.6195,78.7083 66.9528,79.5416 66.5,80.5C 66.5858,81.4959 66.2524,82.3292 65.5,83C 53.8238,87.4452 41.8238,88.6118 29.5,86.5C 18.4669,83.1437 10.4669,76.1437 5.5,65.5 Z"/></g>
<g><path style="opacity:0.218" fill="#dbdbdb" d="M 0.5,58.5 C 2.86749,60.198 4.53416,62.5314 5.5,65.5C 10.4669,76.1437 18.4669,83.1437 29.5,86.5C 31.4758,88.0109 33.8091,88.8442 36.5,89C 49.1264,91.2858 60.4598,88.6191 70.5,81C 104.571,80.8263 138.571,80.3263 172.5,79.5C 174.655,79.628 176.655,79.128 178.5,78C 180.361,74.975 182.694,72.475 185.5,70.5C 183.318,76.1806 179.318,80.014 173.5,82C 141.167,82.3333 108.833,82.6667 76.5,83C 70.5248,86.8918 64.1915,89.7251 57.5,91.5C 50.5,91.5 43.5,91.5 36.5,91.5C 18.7392,86.7375 6.73924,75.7375 0.5,58.5 Z"/></g>
<g><path style="opacity:0.626" fill="#adadad" d="M 174.5,76.5 C 174.218,77.7777 173.551,78.7777 172.5,79.5C 138.571,80.3263 104.571,80.8263 70.5,81C 60.4598,88.6191 49.1264,91.2858 36.5,89C 33.8091,88.8442 31.4758,88.0109 29.5,86.5C 41.8238,88.6118 53.8238,87.4452 65.5,83C 66.2524,82.3292 66.5858,81.4959 66.5,80.5C 69.7644,79.6758 73.0977,79.3424 76.5,79.5C 107.338,79.8315 138.005,79.4981 168.5,78.5C 170.5,77.8333 172.5,77.1667 174.5,76.5 Z"/></g>
<g><path style="opacity:0.878" fill="#929291" d="M 75.5,74.5 C 76.8333,74.5 78.1667,74.5 79.5,74.5C 91.1667,74.5 102.833,74.5 114.5,74.5C 115.29,75.7942 116.29,76.9609 117.5,78C 128.167,78.6667 138.833,78.6667 149.5,78C 146.875,76.6072 146.875,75.4405 149.5,74.5C 153.5,74.5 157.5,74.5 161.5,74.5C 160.294,75.8804 160.627,77.0471 162.5,78C 164.473,78.4955 166.473,78.6621 168.5,78.5C 138.005,79.4981 107.338,79.8315 76.5,79.5C 82.9874,78.6717 89.654,78.1717 96.5,78C 95.8333,77.3333 95.1667,76.6667 94.5,76C 87.9867,75.8279 81.6534,75.3279 75.5,74.5 Z"/></g>
<g><path style="opacity:1" fill="#686868" d="M 63.5,70.5 C 63.0472,71.4584 62.3805,72.2917 61.5,73C 63.2275,72.4742 64.8941,72.6409 66.5,73.5C 63.752,75.6006 60.752,77.4339 57.5,79C 45.1381,83.2307 33.4714,82.064 22.5,75.5C 23.6948,75.3225 24.8615,74.9891 26,74.5C 31.7677,77.8174 37.9344,78.984 44.5,78C 41.6353,77.8171 38.9686,77.3171 36.5,76.5C 46.2357,77.4809 55.2357,75.4809 63.5,70.5 Z"/></g>
<g><path style="opacity:1" fill="#717172" d="M 173.5,71.5 C 174.978,71.238 176.311,71.5713 177.5,72.5C 176.476,73.8518 175.476,75.1851 174.5,76.5C 172.5,77.1667 170.5,77.8333 168.5,78.5C 166.473,78.6621 164.473,78.4955 162.5,78C 160.627,77.0471 160.294,75.8804 161.5,74.5C 165.942,74.9679 169.942,73.9679 173.5,71.5 Z"/></g>
<g><path style="opacity:1" fill="#c7c6c5" d="M 114.5,74.5 C 126.167,74.5 137.833,74.5 149.5,74.5C 146.875,75.4405 146.875,76.6072 149.5,78C 138.833,78.6667 128.167,78.6667 117.5,78C 116.29,76.9609 115.29,75.7942 114.5,74.5 Z"/></g>
</svg>
