<?xml version="1.0" encoding="UTF-8"?>
<!DOCTYPE svg PUBLIC "-//W3C//DTD SVG 1.1//EN" "http://www.w3.org/Graphics/SVG/1.1/DTD/svg11.dtd">
<svg xmlns="http://www.w3.org/2000/svg" version="1.1" width="511px" height="252px" style="shape-rendering:geometricPrecision; text-rendering:geometricPrecision; image-rendering:optimizeQuality; fill-rule:evenodd; clip-rule:evenodd" xmlns:xlink="http://www.w3.org/1999/xlink">
<g><path style="opacity:1" fill="#c6c7c8" d="M 102.5,-0.5 C 113.167,-0.5 123.833,-0.5 134.5,-0.5C 159.575,4.03721 182.241,14.0372 202.5,29.5C 200.506,28.6503 198.506,28.1503 196.5,28C 200.527,32.027 204.527,36.027 208.5,40C 207.906,40.4643 207.239,40.631 206.5,40.5C 171.363,5.18701 129.696,-5.64632 81.5,8C 73.0777,11.0452 65.0777,14.8786 57.5,19.5C 55.0065,19.8693 54.3398,19.2027 55.5,17.5C 69.9767,8.34192 85.6434,2.34192 102.5,-0.5 Z"/></g>
<g><path style="opacity:1" fill="#363636" d="M 206.5,40.5 C 220.284,56.7386 229.284,75.4053 233.5,96.5C 235.386,107.755 235.886,119.088 235,130.5C 234.827,124.652 234.327,118.985 233.5,113.5C 233.474,106.346 232.474,99.3464 230.5,92.5C 229.302,89.5738 228.302,86.5738 227.5,83.5C 225.27,77.6144 221.603,72.9477 216.5,69.5C 214.735,66.2911 212.735,63.2911 210.5,60.5C 204.208,51.2077 196.542,43.2077 187.5,36.5C 179.44,29.1433 170.106,23.8099 159.5,20.5C 133.632,10.3068 107.632,9.97344 81.5,19.5C 70.7314,23.0464 61.0647,28.3797 52.5,35.5C 44.1667,41.8333 36.8333,49.1667 30.5,57.5C 28.1542,60.8708 25.8208,64.2041 23.5,67.5C 18.5893,69.6007 15.2559,73.2674 13.5,78.5C 11.5586,82.7181 9.89189,87.0515 8.5,91.5C 6.13548,102.349 5.13548,113.349 5.5,124.5C 5.84796,131.602 6.84796,138.602 8.5,145.5C 9.16163,147.47 9.82829,149.47 10.5,151.5C 9.99839,152.521 9.33172,152.688 8.5,152C 4.95359,143.903 2.95359,135.403 2.5,126.5C 1.22787,102.514 6.5612,80.1807 18.5,59.5C 28.1462,42.8544 41.1462,29.521 57.5,19.5C 65.0777,14.8786 73.0777,11.0452 81.5,8C 129.696,-5.64632 171.363,5.18701 206.5,40.5 Z"/></g>
<g><path style="opacity:1" fill="#626365" d="M 159.5,20.5 C 157.917,22.5078 156.917,24.8411 156.5,27.5C 132.61,18.6866 108.61,18.3532 84.5,26.5C 84.0615,23.7051 83.0615,21.3717 81.5,19.5C 107.632,9.97344 133.632,10.3068 159.5,20.5 Z"/></g>
<g><path style="opacity:1" fill="#939597" d="M 81.5,19.5 C 83.0615,21.3717 84.0615,23.7051 84.5,26.5C 108.61,18.3532 132.61,18.6866 156.5,27.5C 166.246,31.8788 175.246,37.5455 183.5,44.5C 184.418,41.5158 185.752,38.8492 187.5,36.5C 196.542,43.2077 204.208,51.2077 210.5,60.5C 209.345,67.6549 209.178,74.9882 210,82.5C 220.635,110.864 218.968,138.531 205,165.5C 204.622,171.169 204.788,176.502 205.5,181.5C 201.167,187.833 195.833,193.167 189.5,197.5C 188.834,194.642 188.167,191.642 187.5,188.5C 178.278,197.268 167.944,204.268 156.5,209.5C 145.865,213.44 134.865,215.774 123.5,216.5C 121.143,214.902 118.477,213.902 115.5,213.5C 165.777,212.384 197.943,187.718 212,139.5C 219.569,90.8043 201.735,54.971 158.5,32C 130.869,20.1799 103.536,20.6799 76.5,33.5C 76.5299,32.5028 76.0299,31.8361 75,31.5C 67.3741,35.0586 60.5407,39.7252 54.5,45.5C 53.8333,42.1667 53.1667,38.8333 52.5,35.5C 61.0647,28.3797 70.7314,23.0464 81.5,19.5 Z"/></g>
<g><path style="opacity:1" fill="#757678" d="M 159.5,20.5 C 170.106,23.8099 179.44,29.1433 187.5,36.5C 185.752,38.8492 184.418,41.5158 183.5,44.5C 175.246,37.5455 166.246,31.8788 156.5,27.5C 156.917,24.8411 157.917,22.5078 159.5,20.5 Z"/></g>
<g><path style="opacity:1" fill="#b9babb" d="M 202.5,29.5 C 210.5,29.5 218.5,29.5 226.5,29.5C 228.631,30.3138 230.964,30.8138 233.5,31C 239.056,38.1127 246.389,40.6127 255.5,38.5C 258.167,38.5 260.833,38.5 263.5,38.5C 263.833,39.1667 264.167,39.8333 264.5,40.5C 247.5,40.5 230.5,40.5 213.5,40.5C 212.833,40.5 212.167,40.5 211.5,40.5C 211.167,40.5 210.833,40.5 210.5,40.5C 207.809,36.8151 205.142,33.1484 202.5,29.5 Z"/></g>
<g><path style="opacity:1" fill="#a2a3a4" d="M 226.5,29.5 C 232.833,29.5 239.167,29.5 245.5,29.5C 249.406,31.733 252.739,34.733 255.5,38.5C 246.389,40.6127 239.056,38.1127 233.5,31C 230.964,30.8138 228.631,30.3138 226.5,29.5 Z"/></g>
<g><path style="opacity:1" fill="#898a8c" d="M 245.5,29.5 C 254.833,29.5 264.167,29.5 273.5,29.5C 275.427,32.7673 277.761,35.7673 280.5,38.5C 274.833,38.5 269.167,38.5 263.5,38.5C 260.833,38.5 258.167,38.5 255.5,38.5C 252.739,34.733 249.406,31.733 245.5,29.5 Z"/></g>
<g><path style="opacity:1" fill="#68696b" d="M 273.5,29.5 C 287.5,29.5 301.5,29.5 315.5,29.5C 319.984,31.2999 323.651,34.2999 326.5,38.5C 311.167,38.5 295.833,38.5 280.5,38.5C 277.761,35.7673 275.427,32.7673 273.5,29.5 Z"/></g>
<g><path style="opacity:1" fill="#7c7d7f" d="M 315.5,29.5 C 323.167,29.5 330.833,29.5 338.5,29.5C 340.22,32.7311 342.553,35.5644 345.5,38C 339.175,38.4995 332.842,38.6662 326.5,38.5C 323.651,34.2999 319.984,31.2999 315.5,29.5 Z"/></g>
<g><path style="opacity:1" fill="#e1e2e2" d="M 467.5,44.5 C 463.056,42.5564 458.389,41.5564 453.5,41.5C 421.004,40.5017 388.338,40.1684 355.5,40.5C 355.389,39.8826 355.056,39.3826 354.5,39C 358.821,38.501 363.154,38.3343 367.5,38.5C 371.514,38.6655 375.514,38.4988 379.5,38C 377.167,35.6667 374.833,33.3333 372.5,31C 388.833,30.3333 405.167,30.3333 421.5,31C 423.833,33.3333 426.167,35.6667 428.5,38C 438.532,38.2438 448.532,38.9105 458.5,40C 461,40.8333 463.5,41.6667 466,42.5C 467.03,42.8361 467.53,43.5028 467.5,44.5 Z"/></g>
<g><path style="opacity:1" fill="#c1c3c3" d="M 371.5,29.5 C 400.907,29.1752 430.24,29.5085 459.5,30.5C 467.637,38.292 474.97,46.6254 481.5,55.5C 477.383,51.0398 472.716,47.3732 467.5,44.5C 467.53,43.5028 467.03,42.8361 466,42.5C 463.5,41.6667 461,40.8333 458.5,40C 448.532,38.9105 438.532,38.2438 428.5,38C 426.167,35.6667 423.833,33.3333 421.5,31C 405.167,30.3333 388.833,30.3333 372.5,31C 374.833,33.3333 377.167,35.6667 379.5,38C 375.514,38.4988 371.514,38.6655 367.5,38.5C 365.372,35.8697 363.039,33.3697 360.5,31C 364.356,30.8227 368.023,30.3227 371.5,29.5 Z"/></g>
<g><path style="opacity:1" fill="#b6b8ba" d="M 459.5,30.5 C 472.187,33.0096 482.521,39.3429 490.5,49.5C 495.189,56.8917 498.522,64.8917 500.5,73.5C 500.5,77.5 500.5,81.5 500.5,85.5C 494.022,81.3903 490.022,75.7236 488.5,68.5C 486.439,64.0468 484.106,59.7134 481.5,55.5C 474.97,46.6254 467.637,38.292 459.5,30.5 Z"/></g>
<g><path style="opacity:1" fill="#a7a8a9" d="M 338.5,29.5 C 349.5,29.5 360.5,29.5 371.5,29.5C 368.023,30.3227 364.356,30.8227 360.5,31C 363.039,33.3697 365.372,35.8697 367.5,38.5C 363.154,38.3343 358.821,38.501 354.5,39C 355.056,39.3826 355.389,39.8826 355.5,40.5C 325.167,40.5 294.833,40.5 264.5,40.5C 264.167,39.8333 263.833,39.1667 263.5,38.5C 269.167,38.5 274.833,38.5 280.5,38.5C 295.833,38.5 311.167,38.5 326.5,38.5C 332.842,38.6662 339.175,38.4995 345.5,38C 342.553,35.5644 340.22,32.7311 338.5,29.5 Z"/></g>
<g><path style="opacity:1" fill="#e5e6e6" d="M 76.5,33.5 C 63.7298,39.606 53.0632,48.2727 44.5,59.5C 43.475,59.1034 43.3083,58.4368 44,57.5C 47.3362,53.3322 50.8362,49.3322 54.5,45.5C 60.5407,39.7252 67.3741,35.0586 75,31.5C 76.0299,31.8361 76.5299,32.5028 76.5,33.5 Z"/></g>
<g><path style="opacity:1" fill="#feb000" d="M 213.5,40.5 C 230.5,40.5 247.5,40.5 264.5,40.5C 294.833,40.5 325.167,40.5 355.5,40.5C 388.338,40.1684 421.004,40.5017 453.5,41.5C 375.169,42.2055 296.835,42.5388 218.5,42.5C 216.302,42.8799 214.635,42.2132 213.5,40.5 Z"/></g>
<g><path style="opacity:1" fill="#fd9000" d="M 453.5,41.5 C 458.389,41.5564 463.056,42.5564 467.5,44.5C 472.716,47.3732 477.383,51.0398 481.5,55.5C 484.106,59.7134 486.439,64.0468 488.5,68.5C 489.413,80.1359 489.746,91.8025 489.5,103.5C 485.833,103.5 482.167,103.5 478.5,103.5C 478.634,101.708 478.301,100.042 477.5,98.5C 477.167,97.1667 476.833,95.8333 476.5,94.5C 476.405,92.2143 475.738,90.2143 474.5,88.5C 474.737,87.209 474.404,86.209 473.5,85.5C 473.34,83.847 472.674,82.5137 471.5,81.5C 470.737,79.6316 469.737,77.9649 468.5,76.5C 468.068,75.2905 467.401,74.2905 466.5,73.5C 465.167,71.5 463.5,69.8333 461.5,68.5C 460.564,67.0256 459.23,66.0256 457.5,65.5C 456.035,64.2632 454.368,63.2632 452.5,62.5C 449.365,60.9767 446.032,60.31 442.5,60.5C 372.668,59.6671 302.668,59.1671 232.5,59C 229.653,55.808 227.153,52.308 225,48.5C 222.937,46.2659 220.771,44.2659 218.5,42.5C 296.835,42.5388 375.169,42.2055 453.5,41.5 Z"/></g>
<g><path style="opacity:1" fill="#965b0f" d="M 210.5,40.5 C 210.833,40.5 211.167,40.5 211.5,40.5C 216.525,46.1951 221.191,52.1951 225.5,58.5C 227.291,59.1698 228.958,59.8365 230.5,60.5C 230.167,60.5 229.833,60.5 229.5,60.5C 228.833,60.5 228.167,60.5 227.5,60.5C 226.167,60.5 224.833,60.5 223.5,60.5C 218.819,53.5988 214.485,46.9321 210.5,40.5 Z"/></g>
<g><path style="opacity:1" fill="#9f9e9d" d="M 202.5,29.5 C 205.142,33.1484 207.809,36.8151 210.5,40.5C 214.485,46.9321 218.819,53.5988 223.5,60.5C 229.485,71.4535 233.485,83.1202 235.5,95.5C 235.158,96.3382 234.492,96.6716 233.5,96.5C 229.284,75.4053 220.284,56.7386 206.5,40.5C 207.239,40.631 207.906,40.4643 208.5,40C 204.527,36.027 200.527,32.027 196.5,28C 198.506,28.1503 200.506,28.6503 202.5,29.5 Z"/></g>
<g><path style="opacity:1" fill="#abacae" d="M 52.5,35.5 C 53.1667,38.8333 53.8333,42.1667 54.5,45.5C 50.8362,49.3322 47.3362,53.3322 44,57.5C 43.3083,58.4368 43.475,59.1034 44.5,59.5C 40.8005,64.8564 37.1339,70.1898 33.5,75.5C 32.6728,70.0149 32.1728,64.3482 32,58.5C 31.6174,57.944 31.1174,57.6107 30.5,57.5C 36.8333,49.1667 44.1667,41.8333 52.5,35.5 Z"/></g>
<g><path style="opacity:1" fill="#adaeaf" d="M 55.5,17.5 C 54.3398,19.2027 55.0065,19.8693 57.5,19.5C 41.1462,29.521 28.1462,42.8544 18.5,59.5C 17.1667,59.5 16.5,58.8333 16.5,57.5C 19.021,52.1344 22.1877,47.1344 26,42.5C 34.552,32.4313 44.3853,24.098 55.5,17.5 Z"/></g>
<g><path style="opacity:1" fill="#e8922c" d="M 211.5,40.5 C 212.167,40.5 212.833,40.5 213.5,40.5C 214.635,42.2132 216.302,42.8799 218.5,42.5C 220.771,44.2659 222.937,46.2659 225,48.5C 227.153,52.308 229.653,55.808 232.5,59C 302.668,59.1671 372.668,59.6671 442.5,60.5C 371.833,60.5 301.167,60.5 230.5,60.5C 228.958,59.8365 227.291,59.1698 225.5,58.5C 221.191,52.1951 216.525,46.1951 211.5,40.5 Z"/></g>
<g><path style="opacity:1" fill="#fdd8ab" d="M 229.5,60.5 C 229.833,60.5 230.167,60.5 230.5,60.5C 301.167,60.5 371.833,60.5 442.5,60.5C 446.032,60.31 449.365,60.9767 452.5,62.5C 380.98,63.8284 309.313,63.8284 237.5,62.5C 235.197,62.8763 234.863,63.8763 236.5,65.5C 236.5,65.8333 236.5,66.1667 236.5,66.5C 236.167,66.5 235.833,66.5 235.5,66.5C 233.146,64.8122 231.146,62.8122 229.5,60.5 Z"/></g>
<g><path style="opacity:1" fill="#fdd4a1" d="M 452.5,62.5 C 454.368,63.2632 456.035,64.2632 457.5,65.5C 383.961,66.8284 310.294,66.8284 236.5,65.5C 234.863,63.8763 235.197,62.8763 237.5,62.5C 309.313,63.8284 380.98,63.8284 452.5,62.5 Z"/></g>
<g><path style="opacity:1" fill="#fdcf96" d="M 236.5,66.5 C 236.5,66.1667 236.5,65.8333 236.5,65.5C 310.294,66.8284 383.961,66.8284 457.5,65.5C 459.23,66.0256 460.564,67.0256 461.5,68.5C 387.668,69.6655 313.668,69.8322 239.5,69C 238.627,67.955 237.627,67.1217 236.5,66.5 Z"/></g>
<g><path style="opacity:1" fill="#fcc885" d="M 235.5,66.5 C 235.833,66.5 236.167,66.5 236.5,66.5C 237.627,67.1217 238.627,67.955 239.5,69C 313.668,69.8322 387.668,69.6655 461.5,68.5C 463.5,69.8333 465.167,71.5 466.5,73.5C 392.294,74.1727 317.961,74.8394 243.5,75.5C 242.167,75.5 240.833,75.5 239.5,75.5C 238.427,72.3561 237.093,69.3561 235.5,66.5 Z"/></g>
<g><path style="opacity:1" fill="#bcbdbf" d="M 30.5,57.5 C 31.1174,57.6107 31.6174,57.944 32,58.5C 32.1728,64.3482 32.6728,70.0149 33.5,75.5C 17.2207,113.456 21.554,148.789 46.5,181.5C 45.2058,180.71 44.0391,179.71 43,178.5C 43.1018,182.956 42.2684,186.956 40.5,190.5C 29.7621,180.045 21.7621,167.712 16.5,153.5C 15.2264,151.007 14.5597,148.341 14.5,145.5C 12.5,145.5 10.5,145.5 8.5,145.5C 6.84796,138.602 5.84796,131.602 5.5,124.5C 6.45115,125.919 6.78448,127.585 6.5,129.5C 7.83333,129.5 9.16667,129.5 10.5,129.5C 10.0357,116.416 10.7023,103.416 12.5,90.5C 11.0413,90.4326 9.70792,90.7659 8.5,91.5C 9.89189,87.0515 11.5586,82.7181 13.5,78.5C 15.4672,78.7394 17.3005,78.4061 19,77.5C 20.7862,74.2635 22.2862,70.9302 23.5,67.5C 25.8208,64.2041 28.1542,60.8708 30.5,57.5 Z"/></g>
<g><path style="opacity:1" fill="#fbc278" d="M 466.5,73.5 C 467.401,74.2905 468.068,75.2905 468.5,76.5C 394.001,77.6655 319.334,77.8322 244.5,77C 243.944,76.6174 243.611,76.1174 243.5,75.5C 317.961,74.8394 392.294,74.1727 466.5,73.5 Z"/></g>
<g><path style="opacity:1" fill="#6b6c6e" d="M 23.5,67.5 C 22.2862,70.9302 20.7862,74.2635 19,77.5C 17.3005,78.4061 15.4672,78.7394 13.5,78.5C 15.2559,73.2674 18.5893,69.6007 23.5,67.5 Z"/></g>
<g><path style="opacity:0.874" fill="#8e8e8e" d="M 500.5,73.5 C 501.302,74.9516 501.802,76.6183 502,78.5C 502.667,111.5 502.667,144.5 502,177.5C 501.538,182.92 499.205,187.253 495,190.5C 492.091,196.911 487.591,201.911 481.5,205.5C 484.478,202.187 487.478,198.853 490.5,195.5C 488.517,193.016 486.35,190.683 484,188.5C 483.329,189.252 482.496,189.586 481.5,189.5C 486.111,183.271 488.778,176.271 489.5,168.5C 490.29,167.391 490.79,166.058 491,164.5C 493.667,167.167 496.333,169.833 499,172.5C 499.333,172.167 499.667,171.833 500,171.5C 500.499,165.843 500.666,160.176 500.5,154.5C 500.5,150.833 500.5,147.167 500.5,143.5C 500.5,134.5 500.5,125.5 500.5,116.5C 500.5,106.167 500.5,95.8333 500.5,85.5C 500.5,81.5 500.5,77.5 500.5,73.5 Z"/></g>
<g><path style="opacity:1" fill="#f9ba68" d="M 239.5,75.5 C 240.833,75.5 242.167,75.5 243.5,75.5C 243.611,76.1174 243.944,76.6174 244.5,77C 319.334,77.8322 394.001,77.6655 468.5,76.5C 469.737,77.9649 470.737,79.6316 471.5,81.5C 396.164,81.1667 320.83,81.5 245.5,82.5C 244.272,84.1759 242.939,84.5092 241.5,83.5C 240.25,80.994 239.584,78.3274 239.5,75.5 Z"/></g>
<g><path style="opacity:1" fill="#838485" d="M 216.5,69.5 C 221.603,72.9477 225.27,77.6144 227.5,83.5C 225.712,83.7852 224.045,83.4519 222.5,82.5C 220.76,78.0207 218.76,73.6874 216.5,69.5 Z"/></g>
<g><path style="opacity:1" fill="#8e6f46" d="M 223.5,60.5 C 224.833,60.5 226.167,60.5 227.5,60.5C 228.462,63.7568 229.962,66.7568 232,69.5C 232.303,72.9991 233.136,76.3324 234.5,79.5C 235.384,84.804 236.051,90.1374 236.5,95.5C 236.167,95.5 235.833,95.5 235.5,95.5C 233.485,83.1202 229.485,71.4535 223.5,60.5 Z"/></g>
<g><path style="opacity:1" fill="#c5975b" d="M 227.5,60.5 C 228.167,60.5 228.833,60.5 229.5,60.5C 231.146,62.8122 233.146,64.8122 235.5,66.5C 237.093,69.3561 238.427,72.3561 239.5,75.5C 239.584,78.3274 240.25,80.994 241.5,83.5C 240.646,84.6316 240.646,85.965 241.5,87.5C 241.5,88.1667 241.5,88.8333 241.5,89.5C 240.474,88.147 239.141,87.147 237.5,86.5C 237.293,83.7594 236.293,81.4261 234.5,79.5C 233.136,76.3324 232.303,72.9991 232,69.5C 229.962,66.7568 228.462,63.7568 227.5,60.5 Z"/></g>
<g><path style="opacity:1" fill="#f8b55b" d="M 471.5,81.5 C 472.674,82.5137 473.34,83.847 473.5,85.5C 398.166,85.3333 322.833,85.5 247.5,86C 246.748,86.6708 246.414,87.5041 246.5,88.5C 246.167,89.1667 245.833,89.8333 245.5,90.5C 243.57,90.2294 242.236,89.2294 241.5,87.5C 240.646,85.965 240.646,84.6316 241.5,83.5C 242.939,84.5092 244.272,84.1759 245.5,82.5C 320.83,81.5 396.164,81.1667 471.5,81.5 Z"/></g>
<g><path style="opacity:1" fill="#f7ae49" d="M 473.5,85.5 C 474.404,86.209 474.737,87.209 474.5,88.5C 399.627,89.1696 324.627,89.8363 249.5,90.5C 248.482,89.8075 247.482,89.1408 246.5,88.5C 246.414,87.5041 246.748,86.6708 247.5,86C 322.833,85.5 398.166,85.3333 473.5,85.5 Z"/></g>
<g><path style="opacity:1" fill="#f5a73b" d="M 246.5,88.5 C 247.482,89.1408 248.482,89.8075 249.5,90.5C 324.627,89.8363 399.627,89.1696 474.5,88.5C 475.738,90.2143 476.405,92.2143 476.5,94.5C 401.499,94.3333 326.499,94.5 251.5,95C 250.663,96.0113 250.33,97.1779 250.5,98.5C 249.222,98.2178 248.222,97.5511 247.5,96.5C 247.747,94.1417 247.081,92.1417 245.5,90.5C 245.833,89.8333 246.167,89.1667 246.5,88.5 Z"/></g>
<g><path style="opacity:1" fill="#f29f28" d="M 476.5,94.5 C 476.833,95.8333 477.167,97.1667 477.5,98.5C 442.167,98.5 406.833,98.5 371.5,98.5C 371.5,97.8333 371.167,97.5 370.5,97.5C 367.038,96.5184 363.371,96.185 359.5,96.5C 359.833,102.93 359.5,108.597 358.5,113.5C 358.5,108.5 358.5,103.5 358.5,98.5C 338.993,98.1697 319.659,98.503 300.5,99.5C 293.63,97.5198 287.296,98.5198 281.5,102.5C 272.161,102.666 262.827,102.5 253.5,102C 252.167,101.333 252.167,100.667 253.5,100C 252.906,99.5357 252.239,99.369 251.5,99.5C 251.5,98.8333 251.167,98.5 250.5,98.5C 250.33,97.1779 250.663,96.0113 251.5,95C 326.499,94.5 401.499,94.3333 476.5,94.5 Z"/></g>
<g><path style="opacity:1" fill="#e6e7e7" d="M 5.5,124.5 C 5.13548,113.349 6.13548,102.349 8.5,91.5C 9.70792,90.7659 11.0413,90.4326 12.5,90.5C 10.7023,103.416 10.0357,116.416 10.5,129.5C 9.16667,129.5 7.83333,129.5 6.5,129.5C 6.78448,127.585 6.45115,125.919 5.5,124.5 Z"/></g>
<g><path style="opacity:1" fill="#e6e7e7" d="M 230.5,92.5 C 232.474,99.3464 233.474,106.346 233.5,113.5C 233.673,122.195 233.34,130.862 232.5,139.5C 230.167,139.5 227.833,139.5 225.5,139.5C 226.496,131.702 227.163,123.869 227.5,116C 226.887,107.824 226.22,99.6574 225.5,91.5C 227.292,91.366 228.958,91.6993 230.5,92.5 Z"/></g>
<g><path style="opacity:1" fill="#fbfaf9" d="M 370.5,97.5 C 370.5,114.5 370.5,131.5 370.5,148.5C 367.5,148.5 364.5,148.5 361.5,148.5C 360.833,148.5 360.167,148.5 359.5,148.5C 359.649,147.448 359.483,146.448 359,145.5C 358.5,147.333 357.333,148.5 355.5,149C 353.19,149.497 350.857,149.663 348.5,149.5C 348.167,149.5 347.833,149.5 347.5,149.5C 344.324,146.489 342.157,142.822 341,138.5C 340.333,132.5 340.333,126.5 341,120.5C 344.424,111.865 350.257,109.532 358.5,113.5C 359.5,108.597 359.833,102.93 359.5,96.5C 363.371,96.185 367.038,96.5184 370.5,97.5 Z"/></g>
<g><path style="opacity:1" fill="#fcfbf9" d="M 300.5,99.5 C 305.979,102.311 309.645,106.644 311.5,112.5C 313.591,122.902 312.425,132.902 308,142.5C 303.001,148.86 296.501,151.193 288.5,149.5C 281.73,146.337 277.564,141.004 276,133.5C 275.333,126.833 275.333,120.167 276,113.5C 277.319,109.528 279.153,105.861 281.5,102.5C 287.296,98.5198 293.63,97.5198 300.5,99.5 Z"/></g>
<g><path style="opacity:1" fill="#2a2626" d="M 370.5,97.5 C 371.167,97.5 371.5,97.8333 371.5,98.5C 371.5,113.5 371.5,128.5 371.5,143.5C 371.5,145.5 371.5,147.5 371.5,149.5C 367.958,149.813 364.625,149.479 361.5,148.5C 364.5,148.5 367.5,148.5 370.5,148.5C 370.5,131.5 370.5,114.5 370.5,97.5 Z"/></g>
<g><path style="opacity:1" fill="#88888a" d="M 16.5,57.5 C 16.5,58.8333 17.1667,59.5 18.5,59.5C 6.5612,80.1807 1.22787,102.514 2.5,126.5C 0.656493,128.279 -0.0101734,130.612 0.5,133.5C 0.166667,133.5 -0.166667,133.5 -0.5,133.5C -0.5,123.833 -0.5,114.167 -0.5,104.5C 1.18558,94.762 3.68558,85.0953 7,75.5C 9.41664,68.9953 12.5833,62.9953 16.5,57.5 Z"/></g>
<g><path style="opacity:1" fill="#d8d8d7" d="M 488.5,68.5 C 490.022,75.7236 494.022,81.3903 500.5,85.5C 500.5,95.8333 500.5,106.167 500.5,116.5C 497.203,113.704 494.036,110.704 491,107.5C 490.333,116.5 490.333,125.5 491,134.5C 494.036,137.704 497.203,140.704 500.5,143.5C 500.5,147.167 500.5,150.833 500.5,154.5C 497.203,151.704 494.036,148.704 491,145.5C 490.802,147.382 490.302,149.048 489.5,150.5C 489.5,134.833 489.5,119.167 489.5,103.5C 489.746,91.8025 489.413,80.1359 488.5,68.5 Z"/></g>
<g><path style="opacity:1" fill="#eb8e07" d="M 371.5,98.5 C 406.833,98.5 442.167,98.5 477.5,98.5C 478.301,100.042 478.634,101.708 478.5,103.5C 482.167,103.5 485.833,103.5 489.5,103.5C 489.5,119.167 489.5,134.833 489.5,150.5C 489.5,156.5 489.5,162.5 489.5,168.5C 488.778,176.271 486.111,183.271 481.5,189.5C 478.789,193.212 475.456,196.212 471.5,198.5C 476.26,193.553 480.094,187.886 483,181.5C 485.178,174.339 486.012,167.005 485.5,159.5C 485.5,154.167 485.5,148.833 485.5,143.5C 464.833,143.5 444.167,143.5 423.5,143.5C 423.5,139.5 423.5,135.5 423.5,131.5C 423.215,125.785 425.882,123.118 431.5,123.5C 431.815,119.629 431.482,115.962 430.5,112.5C 427.57,110.926 425.07,111.592 423,114.5C 422.5,114 422,113.5 421.5,113C 418.183,112.502 414.85,112.335 411.5,112.5C 411.5,124.5 411.5,136.5 411.5,148.5C 410.549,147.081 410.216,145.415 410.5,143.5C 408.282,143.386 406.282,142.72 404.5,141.5C 401.898,139.858 399.231,138.192 396.5,136.5C 394.116,141.209 391.45,141.542 388.5,137.5C 388.5,136.5 388.5,135.5 388.5,134.5C 394.5,134.5 400.5,134.5 406.5,134.5C 406.562,129.924 405.895,125.591 404.5,121.5C 400.019,111.192 392.685,108.692 382.5,114C 376.996,120.516 375.163,128.016 377,136.5C 377.379,139.03 378.213,141.363 379.5,143.5C 376.833,143.5 374.167,143.5 371.5,143.5C 371.5,128.5 371.5,113.5 371.5,98.5 Z"/></g>
<g><path style="opacity:1" fill="#ea8f11" d="M 300.5,99.5 C 319.659,98.503 338.993,98.1697 358.5,98.5C 358.5,103.5 358.5,108.5 358.5,113.5C 350.257,109.532 344.424,111.865 341,120.5C 340.333,126.5 340.333,132.5 341,138.5C 342.157,142.822 344.324,146.489 347.5,149.5C 342.36,150.488 337.026,150.821 331.5,150.5C 331.5,143.833 331.5,137.167 331.5,130.5C 331.695,125.303 334.362,122.97 339.5,123.5C 339.815,119.629 339.482,115.962 338.5,112.5C 335.57,110.926 333.07,111.592 331,114.5C 330.5,114 330,113.5 329.5,113C 326.183,112.502 322.85,112.335 319.5,112.5C 319.5,124.5 319.5,136.5 319.5,148.5C 318.549,147.081 318.216,145.415 318.5,143.5C 315.615,143.806 312.948,143.473 310.5,142.5C 313.375,133.739 314.209,124.739 313,115.5C 312.768,114.263 312.268,113.263 311.5,112.5C 309.645,106.644 305.979,102.311 300.5,99.5 Z"/></g>
<g><path style="opacity:1" fill="#332f2f" d="M 296.5,110.5 C 292.83,110.327 290.33,111.993 289,115.5C 287.675,120.401 287.175,125.401 287.5,130.5C 286.13,124.928 286.297,119.261 288,113.5C 290.067,109.803 292.901,108.803 296.5,110.5 Z"/></g>
<g><path style="opacity:1" fill="#fbfbfb" d="M 338.5,112.5 C 338.5,115.833 338.5,119.167 338.5,122.5C 333.794,121.881 331.127,123.881 330.5,128.5C 329.509,134.979 329.176,141.646 329.5,148.5C 326.5,148.5 323.5,148.5 320.5,148.5C 320.167,148.5 319.833,148.5 319.5,148.5C 319.5,136.5 319.5,124.5 319.5,112.5C 322.85,112.335 326.183,112.502 329.5,113C 330,113.5 330.5,114 331,114.5C 333.07,111.592 335.57,110.926 338.5,112.5 Z"/></g>
<g><path style="opacity:1" fill="#fbfaf9" d="M 404.5,121.5 C 404.5,125.5 404.5,129.5 404.5,133.5C 398.833,133.5 393.167,133.5 387.5,133.5C 387.232,135.099 387.566,136.432 388.5,137.5C 391.45,141.542 394.116,141.209 396.5,136.5C 399.231,138.192 401.898,139.858 404.5,141.5C 404.5,141.833 404.5,142.167 404.5,142.5C 400.148,148.664 394.148,150.997 386.5,149.5C 383.573,148.243 381.239,146.243 379.5,143.5C 378.213,141.363 377.379,139.03 377,136.5C 375.163,128.016 376.996,120.516 382.5,114C 392.685,108.692 400.019,111.192 404.5,121.5 Z"/></g>
<g><path style="opacity:1" fill="#fcfcfb" d="M 430.5,112.5 C 430.5,115.833 430.5,119.167 430.5,122.5C 426.254,121.761 423.587,123.427 422.5,127.5C 421.509,134.313 421.175,141.313 421.5,148.5C 418.5,148.5 415.5,148.5 412.5,148.5C 412.167,148.5 411.833,148.5 411.5,148.5C 411.5,136.5 411.5,124.5 411.5,112.5C 414.85,112.335 418.183,112.502 421.5,113C 422,113.5 422.5,114 423,114.5C 425.07,111.592 427.57,110.926 430.5,112.5 Z"/></g>
<g><path style="opacity:1" fill="#e68601" d="M 251.5,99.5 C 252.239,99.369 252.906,99.5357 253.5,100C 252.167,100.667 252.167,101.333 253.5,102C 262.827,102.5 272.161,102.666 281.5,102.5C 279.153,105.861 277.319,109.528 276,113.5C 275.333,120.167 275.333,126.833 276,133.5C 277.564,141.004 281.73,146.337 288.5,149.5C 297.512,153.018 304.845,150.684 310.5,142.5C 312.948,143.473 315.615,143.806 318.5,143.5C 318.216,145.415 318.549,147.081 319.5,148.5C 319.833,148.5 320.167,148.5 320.5,148.5C 320.5,148.833 320.5,149.167 320.5,149.5C 323.962,150.482 327.629,150.815 331.5,150.5C 337.026,150.821 342.36,150.488 347.5,149.5C 347.833,149.5 348.167,149.5 348.5,149.5C 352.283,151.007 355.95,150.673 359.5,148.5C 360.167,148.5 360.833,148.5 361.5,148.5C 364.625,149.479 367.958,149.813 371.5,149.5C 371.5,147.5 371.5,145.5 371.5,143.5C 374.167,143.5 376.833,143.5 379.5,143.5C 381.239,146.243 383.573,148.243 386.5,149.5C 394.513,152.884 400.846,150.717 405.5,143C 405.272,142.601 404.938,142.435 404.5,142.5C 404.5,142.167 404.5,141.833 404.5,141.5C 406.282,142.72 408.282,143.386 410.5,143.5C 410.216,145.415 410.549,147.081 411.5,148.5C 411.833,148.5 412.167,148.5 412.5,148.5C 412.5,148.833 412.5,149.167 412.5,149.5C 415.962,150.482 419.629,150.815 423.5,150.5C 423.5,148.167 423.5,145.833 423.5,143.5C 444.167,143.5 464.833,143.5 485.5,143.5C 485.5,148.833 485.5,154.167 485.5,159.5C 409.164,159.833 332.83,159.5 256.5,158.5C 252.618,145.227 252.618,131.394 256.5,117C 253.922,111.432 252.256,105.599 251.5,99.5 Z"/></g>
<g><path style="opacity:1" fill="#e38906" d="M 296.5,110.5 C 298.136,111.749 299.303,113.416 300,115.5C 300.667,121.167 300.667,126.833 300,132.5C 297.723,139.085 294.057,140.085 289,135.5C 287.991,133.975 287.491,132.308 287.5,130.5C 287.175,125.401 287.675,120.401 289,115.5C 290.33,111.993 292.83,110.327 296.5,110.5 Z"/></g>
<g><path style="opacity:1" fill="#41372f" d="M 393.5,121.5 C 390.633,121.369 388.967,122.703 388.5,125.5C 387.375,123.623 387.709,121.79 389.5,120C 391.352,119.227 392.686,119.727 393.5,121.5 Z"/></g>
<g><path style="opacity:1" fill="#e79529" d="M 393.5,121.5 C 394.451,122.919 394.784,124.585 394.5,126.5C 392.265,126.795 390.265,126.461 388.5,125.5C 388.967,122.703 390.633,121.369 393.5,121.5 Z"/></g>
<g><path style="opacity:1" fill="#ebecec" d="M 500.5,116.5 C 500.5,125.5 500.5,134.5 500.5,143.5C 497.203,140.704 494.036,137.704 491,134.5C 490.333,125.5 490.333,116.5 491,107.5C 494.036,110.704 497.203,113.704 500.5,116.5 Z"/></g>
<g><path style="opacity:1" fill="#e88c08" d="M 357.5,122.5 C 359.534,126.876 360.034,131.543 359,136.5C 357.215,139.993 355.048,140.326 352.5,137.5C 352.334,133.486 352.501,129.486 353,125.5C 353.589,123.137 355.089,122.137 357.5,122.5 Z"/></g>
<g><path style="opacity:1" fill="#2b2524" d="M 338.5,112.5 C 339.482,115.962 339.815,119.629 339.5,123.5C 334.362,122.97 331.695,125.303 331.5,130.5C 331.167,130.5 330.833,130.5 330.5,130.5C 330.5,129.833 330.5,129.167 330.5,128.5C 331.127,123.881 333.794,121.881 338.5,122.5C 338.5,119.167 338.5,115.833 338.5,112.5 Z"/></g>
<g><path style="opacity:1" fill="#2a2524" d="M 430.5,112.5 C 431.482,115.962 431.815,119.629 431.5,123.5C 425.882,123.118 423.215,125.785 423.5,131.5C 423.167,131.5 422.833,131.5 422.5,131.5C 422.5,130.167 422.5,128.833 422.5,127.5C 423.587,123.427 426.254,121.761 430.5,122.5C 430.5,119.167 430.5,115.833 430.5,112.5 Z"/></g>
<g><path style="opacity:1" fill="#827f80" d="M 330.5,128.5 C 330.5,129.167 330.5,129.833 330.5,130.5C 330.5,136.833 330.5,143.167 330.5,149.5C 327.167,149.5 323.833,149.5 320.5,149.5C 320.5,149.167 320.5,148.833 320.5,148.5C 323.5,148.5 326.5,148.5 329.5,148.5C 329.176,141.646 329.509,134.979 330.5,128.5 Z"/></g>
<g><path style="opacity:1" fill="#554434" d="M 357.5,122.5 C 355.089,122.137 353.589,123.137 353,125.5C 352.501,129.486 352.334,133.486 352.5,137.5C 351.778,137.082 351.278,136.416 351,135.5C 350.333,132.167 350.333,128.833 351,125.5C 352.208,121.848 354.375,120.848 357.5,122.5 Z"/></g>
<g><path style="opacity:1" fill="#b0b2b3" d="M 210.5,60.5 C 212.735,63.2911 214.735,66.2911 216.5,69.5C 218.76,73.6874 220.76,78.0207 222.5,82.5C 224.045,83.4519 225.712,83.7852 227.5,83.5C 228.302,86.5738 229.302,89.5738 230.5,92.5C 228.958,91.6993 227.292,91.366 225.5,91.5C 226.22,99.6574 226.887,107.824 227.5,116C 227.163,123.869 226.496,131.702 225.5,139.5C 227.833,139.5 230.167,139.5 232.5,139.5C 231.366,142.37 230.7,145.37 230.5,148.5C 228.143,148.337 225.81,148.503 223.5,149C 222.418,150.33 221.751,151.83 221.5,153.5C 217.192,163.453 211.859,172.786 205.5,181.5C 204.788,176.502 204.622,171.169 205,165.5C 218.968,138.531 220.635,110.864 210,82.5C 209.178,74.9882 209.345,67.6549 210.5,60.5 Z"/></g>
<g><path style="opacity:1" fill="#848283" d="M 422.5,127.5 C 422.5,128.833 422.5,130.167 422.5,131.5C 422.5,137.5 422.5,143.5 422.5,149.5C 419.167,149.5 415.833,149.5 412.5,149.5C 412.5,149.167 412.5,148.833 412.5,148.5C 415.5,148.5 418.5,148.5 421.5,148.5C 421.175,141.313 421.509,134.313 422.5,127.5 Z"/></g>
<g><path style="opacity:1" fill="#614016" d="M 330.5,130.5 C 330.833,130.5 331.167,130.5 331.5,130.5C 331.5,137.167 331.5,143.833 331.5,150.5C 327.629,150.815 323.962,150.482 320.5,149.5C 323.833,149.5 327.167,149.5 330.5,149.5C 330.5,143.167 330.5,136.833 330.5,130.5 Z"/></g>
<g><path style="opacity:1" fill="#624016" d="M 422.5,131.5 C 422.833,131.5 423.167,131.5 423.5,131.5C 423.5,135.5 423.5,139.5 423.5,143.5C 423.5,145.833 423.5,148.167 423.5,150.5C 419.629,150.815 415.962,150.482 412.5,149.5C 415.833,149.5 419.167,149.5 422.5,149.5C 422.5,143.5 422.5,137.5 422.5,131.5 Z"/></g>
<g><path style="opacity:1" fill="#403630" d="M 404.5,121.5 C 405.895,125.591 406.562,129.924 406.5,134.5C 400.5,134.5 394.5,134.5 388.5,134.5C 388.5,135.5 388.5,136.5 388.5,137.5C 387.566,136.432 387.232,135.099 387.5,133.5C 393.167,133.5 398.833,133.5 404.5,133.5C 404.5,129.5 404.5,125.5 404.5,121.5 Z"/></g>
<g><path style="opacity:1" fill="#42362e" d="M 311.5,112.5 C 312.268,113.263 312.768,114.263 313,115.5C 314.209,124.739 313.375,133.739 310.5,142.5C 304.845,150.684 297.512,153.018 288.5,149.5C 296.501,151.193 303.001,148.86 308,142.5C 312.425,132.902 313.591,122.902 311.5,112.5 Z"/></g>
<g><path style="opacity:1" fill="#c47101" d="M 241.5,87.5 C 242.236,89.2294 243.57,90.2294 245.5,90.5C 247.081,92.1417 247.747,94.1417 247.5,96.5C 252.491,125.785 249.991,154.452 240,182.5C 235.57,189.924 230.404,196.758 224.5,203C 221.518,203.498 218.518,203.665 215.5,203.5C 220.47,196.366 225.97,189.699 232,183.5C 243.344,159.432 248.01,134.099 246,107.5C 244.367,101.454 242.867,95.4539 241.5,89.5C 241.5,88.8333 241.5,88.1667 241.5,87.5 Z"/></g>
<g><path style="opacity:1" fill="#36302f" d="M 359.5,148.5 C 355.95,150.673 352.283,151.007 348.5,149.5C 350.857,149.663 353.19,149.497 355.5,149C 357.333,148.5 358.5,147.333 359,145.5C 359.483,146.448 359.649,147.448 359.5,148.5 Z"/></g>
<g><path style="opacity:1" fill="#453931" d="M 404.5,142.5 C 404.938,142.435 405.272,142.601 405.5,143C 400.846,150.717 394.513,152.884 386.5,149.5C 394.148,150.997 400.148,148.664 404.5,142.5 Z"/></g>
<g><path style="opacity:1" fill="#424244" d="M 16.5,153.5 C 21.7621,167.712 29.7621,180.045 40.5,190.5C 45.8909,196.224 51.8909,201.224 58.5,205.5C 65.2366,210.202 72.5699,213.868 80.5,216.5C 98.8492,223.532 117.849,225.365 137.5,222C 144.882,220.704 151.882,218.537 158.5,215.5C 170.273,211.787 180.606,205.787 189.5,197.5C 195.833,193.167 201.167,187.833 205.5,181.5C 211.859,172.786 217.192,163.453 221.5,153.5C 223.924,153.192 226.257,153.526 228.5,154.5C 224.119,165.599 218.453,175.932 211.5,185.5C 180.961,220.186 142.628,234.019 96.5,227C 81.9078,223.701 68.2411,218.201 55.5,210.5C 43.2369,202.571 32.9036,192.571 24.5,180.5C 19.1255,172.418 14.7922,163.751 11.5,154.5C 13.0453,153.548 14.712,153.215 16.5,153.5 Z"/></g>
<g><path style="opacity:1" fill="#626364" d="M 2.5,126.5 C 2.95359,135.403 4.95359,143.903 8.5,152C 9.33172,152.688 9.99839,152.521 10.5,151.5C 9.82829,149.47 9.16163,147.47 8.5,145.5C 10.5,145.5 12.5,145.5 14.5,145.5C 14.5597,148.341 15.2264,151.007 16.5,153.5C 14.712,153.215 13.0453,153.548 11.5,154.5C 14.7922,163.751 19.1255,172.418 24.5,180.5C 21.8333,180.5 19.1667,180.5 16.5,180.5C 10.8607,170.552 6.19401,160.219 2.5,149.5C 1.44406,144.219 0.777391,138.886 0.5,133.5C -0.0101734,130.612 0.656493,128.279 2.5,126.5 Z"/></g>
<g><path style="opacity:1" fill="#874f02" d="M 234.5,79.5 C 236.293,81.4261 237.293,83.7594 237.5,86.5C 242.118,101.813 243.618,117.48 242,133.5C 239.605,146.501 236.272,159.168 232,171.5C 231.667,173.833 231.333,176.167 231,178.5C 226.282,187.425 220.449,195.591 213.5,203C 209.83,203.548 206.163,204.048 202.5,204.5C 207.659,198.832 212.325,192.832 216.5,186.5C 230.801,166.26 238.134,143.594 238.5,118.5C 238.244,110.79 237.578,103.124 236.5,95.5C 236.051,90.1374 235.384,84.804 234.5,79.5 Z"/></g>
<g><path style="opacity:0.278" fill="#dddddd" d="M -0.5,133.5 C -0.166667,133.5 0.166667,133.5 0.5,133.5C 0.777391,138.886 1.44406,144.219 2.5,149.5C 2.33788,151.527 2.50454,153.527 3,155.5C 4.78849,161.509 6.78849,167.509 9,173.5C 13.2857,179.309 17.2857,185.309 21,191.5C 22.8839,196.258 25.5505,200.592 29,204.5C 37.0581,211.393 44.5581,218.726 51.5,226.5C 22.8316,206.842 5.49828,179.842 -0.5,145.5C -0.5,141.5 -0.5,137.5 -0.5,133.5 Z"/></g>
<g><path style="opacity:1" fill="#616161" d="M 235.5,95.5 C 235.833,95.5 236.167,95.5 236.5,95.5C 237.578,103.124 238.244,110.79 238.5,118.5C 238.134,143.594 230.801,166.26 216.5,186.5C 215.081,185.549 213.415,185.216 211.5,185.5C 218.453,175.932 224.119,165.599 228.5,154.5C 226.257,153.526 223.924,153.192 221.5,153.5C 221.751,151.83 222.418,150.33 223.5,149C 225.81,148.503 228.143,148.337 230.5,148.5C 230.7,145.37 231.366,142.37 232.5,139.5C 233.34,130.862 233.673,122.195 233.5,113.5C 234.327,118.985 234.827,124.652 235,130.5C 235.886,119.088 235.386,107.755 233.5,96.5C 234.492,96.6716 235.158,96.3382 235.5,95.5 Z"/></g>
<g><path style="opacity:1" fill="#b4751e" d="M 237.5,86.5 C 239.141,87.147 240.474,88.147 241.5,89.5C 242.867,95.4539 244.367,101.454 246,107.5C 248.01,134.099 243.344,159.432 232,183.5C 225.97,189.699 220.47,196.366 215.5,203.5C 294.332,204.499 373.332,204.833 452.5,204.5C 443.682,205.493 434.682,205.827 425.5,205.5C 415.5,205.5 405.5,205.5 395.5,205.5C 364.833,205.5 334.167,205.5 303.5,205.5C 297.167,205.5 290.833,205.5 284.5,205.5C 261.833,205.5 239.167,205.5 216.5,205.5C 213.833,205.5 211.167,205.5 208.5,205.5C 206.167,205.5 203.833,205.5 201.5,205.5C 201.5,204.833 201.833,204.5 202.5,204.5C 206.163,204.048 209.83,203.548 213.5,203C 220.449,195.591 226.282,187.425 231,178.5C 231.333,176.167 231.667,173.833 232,171.5C 236.272,159.168 239.605,146.501 242,133.5C 243.618,117.48 242.118,101.813 237.5,86.5 Z"/></g>
<g><path style="opacity:1" fill="#bbbbbb" d="M 500.5,154.5 C 500.666,160.176 500.499,165.843 500,171.5C 499.667,171.833 499.333,172.167 499,172.5C 496.333,169.833 493.667,167.167 491,164.5C 490.79,166.058 490.29,167.391 489.5,168.5C 489.5,162.5 489.5,156.5 489.5,150.5C 490.302,149.048 490.802,147.382 491,145.5C 494.036,148.704 497.203,151.704 500.5,154.5 Z"/></g>
<g><path style="opacity:1" fill="#9b9c9e" d="M 46.5,181.5 C 50.4671,187.134 55.1338,192.134 60.5,196.5C 59.8333,199.5 59.1667,202.5 58.5,205.5C 51.8909,201.224 45.8909,196.224 40.5,190.5C 42.2684,186.956 43.1018,182.956 43,178.5C 44.0391,179.71 45.2058,180.71 46.5,181.5 Z"/></g>
<g><path style="opacity:1" fill="#dc7e00" d="M 247.5,96.5 C 248.222,97.5511 249.222,98.2178 250.5,98.5C 251.167,98.5 251.5,98.8333 251.5,99.5C 252.256,105.599 253.922,111.432 256.5,117C 252.618,131.394 252.618,145.227 256.5,158.5C 332.83,159.5 409.164,159.833 485.5,159.5C 486.012,167.005 485.178,174.339 483,181.5C 480.094,187.886 476.26,193.553 471.5,198.5C 468.594,200.45 465.594,202.117 462.5,203.5C 459.193,204.051 455.86,204.384 452.5,204.5C 373.332,204.833 294.332,204.499 215.5,203.5C 218.518,203.665 221.518,203.498 224.5,203C 230.404,196.758 235.57,189.924 240,182.5C 249.991,154.452 252.491,125.785 247.5,96.5 Z"/></g>
<g><path style="opacity:1" fill="#737477" d="M 16.5,180.5 C 19.1667,180.5 21.8333,180.5 24.5,180.5C 32.9036,192.571 43.2369,202.571 55.5,210.5C 50.4889,210.666 45.4889,210.499 40.5,210C 36.631,205.963 32.631,202.13 28.5,198.5C 24.1336,192.79 20.1336,186.79 16.5,180.5 Z"/></g>
<g><path style="opacity:1" fill="#5a5757" d="M 115.5,213.5 C 88.0517,212.274 65.0517,201.607 46.5,181.5C 21.554,148.789 17.2207,113.456 33.5,75.5C 37.1339,70.1898 40.8005,64.8564 44.5,59.5C 53.0632,48.2727 63.7298,39.606 76.5,33.5C 103.536,20.6799 130.869,20.1799 158.5,32C 201.735,54.971 219.569,90.8043 212,139.5C 197.943,187.718 165.777,212.384 115.5,213.5 Z"/></g>
<g><path style="opacity:1" fill="#fc8f04" d="M 107.5,26.5 C 153.323,24.5468 185.823,44.2134 205,85.5C 217.871,126.207 208.705,161.041 177.5,190C 147.992,212.167 115.992,216.501 81.5,203C 39.4074,180.649 21.9074,145.815 29,98.5C 40.3839,58.2792 66.5506,34.2792 107.5,26.5 Z"/></g>
<g><path style="opacity:1" fill="#4f4338" d="M 166.5,152.5 C 168.167,160.833 164.833,164.167 156.5,162.5C 162.833,162.167 166.167,158.833 166.5,152.5 Z"/></g>
<g><path style="opacity:1" fill="#46423e" d="M 125.5,151.5 C 127.72,156.519 126.387,160.352 121.5,163C 119.288,163.789 117.288,163.622 115.5,162.5C 123.04,162.628 126.373,158.961 125.5,151.5 Z"/></g>
<g><path style="opacity:1" fill="#faf8f6" d="M 166.5,152.5 C 166.167,158.833 162.833,162.167 156.5,162.5C 150.257,160.016 148.424,155.683 151,149.5C 154.373,146.028 158.207,145.195 162.5,147C 164.464,148.451 165.797,150.284 166.5,152.5 Z"/></g>
<g><path style="opacity:1" fill="#fbf8f6" d="M 125.5,151.5 C 126.373,158.961 123.04,162.628 115.5,162.5C 110.319,160.123 108.486,156.123 110,150.5C 115.754,143.742 120.92,144.075 125.5,151.5 Z"/></g>
<g><path style="opacity:1" fill="#393734" d="M 177.5,136.5 C 179.308,137.918 179.975,139.918 179.5,142.5C 151.662,142.831 123.995,142.498 96.5,141.5C 123.5,141.5 150.5,141.5 177.5,141.5C 177.5,139.833 177.5,138.167 177.5,136.5 Z"/></g>
<g><path style="opacity:1" fill="#85715d" d="M 97.5,127.5 C 98.871,129.936 99.871,132.603 100.5,135.5C 98.0181,133.497 97.0181,130.831 97.5,127.5 Z"/></g>
<g><path style="opacity:1" fill="#57442d" d="M 153.5,115.5 C 154.49,121.31 154.823,127.31 154.5,133.5C 148.31,133.823 142.31,133.49 136.5,132.5C 142.167,132.5 147.833,132.5 153.5,132.5C 153.5,129.833 153.5,127.167 153.5,124.5C 153.5,121.5 153.5,118.5 153.5,115.5 Z"/></g>
<g><path style="opacity:1" fill="#624928" d="M 118.5,130.5 C 119.404,131.209 119.737,132.209 119.5,133.5C 113.974,133.821 108.64,133.488 103.5,132.5C 108.944,133.108 113.944,132.442 118.5,130.5 Z"/></g>
<g><path style="opacity:1" fill="#f8c88b" d="M 157.5,123.5 C 157.194,126.385 157.527,129.052 158.5,131.5C 158.5,131.833 158.5,132.167 158.5,132.5C 157.235,131.486 156.569,129.986 156.5,128C 156.508,126.293 156.842,124.793 157.5,123.5 Z"/></g>
<g><path style="opacity:1" fill="#a0a0a0" d="M 153.5,124.5 C 153.5,127.167 153.5,129.833 153.5,132.5C 147.833,132.5 142.167,132.5 136.5,132.5C 136.5,132.167 136.5,131.833 136.5,131.5C 141.833,131.5 147.167,131.5 152.5,131.5C 152.198,128.941 152.532,126.607 153.5,124.5 Z"/></g>
<g><path style="opacity:1" fill="#9e9c99" d="M 117.5,127.5 C 118.404,128.209 118.737,129.209 118.5,130.5C 113.944,132.442 108.944,133.108 103.5,132.5C 102.833,132.5 102.5,132.167 102.5,131.5C 107.5,131.5 112.5,131.5 117.5,131.5C 117.5,130.167 117.5,128.833 117.5,127.5 Z"/></g>
<g><path style="opacity:1" fill="#817365" d="M 95.5,120.5 C 96.9238,122.515 97.5905,124.848 97.5,127.5C 95.8372,125.562 95.1706,123.228 95.5,120.5 Z"/></g>
<g><path style="opacity:1" fill="#6f5533" d="M 171.5,116.5 C 172.489,121.975 172.822,127.642 172.5,133.5C 167.833,133.5 163.167,133.5 158.5,133.5C 158.5,133.167 158.5,132.833 158.5,132.5C 162.833,132.5 167.167,132.5 171.5,132.5C 171.5,127.167 171.5,121.833 171.5,116.5 Z"/></g>
<g><path style="opacity:1" fill="#5c5247" d="M 135.5,114.5 C 136.338,114.842 136.672,115.508 136.5,116.5C 135.062,122.121 133.728,127.787 132.5,133.5C 128.988,134.055 125.988,133.388 123.5,131.5C 126.167,131.5 128.833,131.5 131.5,131.5C 132.469,125.627 133.802,119.96 135.5,114.5 Z"/></g>
<g><path style="opacity:1" fill="#85786b" d="M 114.5,118.5 C 115.738,120.214 116.405,122.214 116.5,124.5C 114.926,122.898 114.259,120.898 114.5,118.5 Z"/></g>
<g><path style="opacity:1" fill="#737373" d="M 170.5,116.5 C 170.833,116.5 171.167,116.5 171.5,116.5C 171.5,121.833 171.5,127.167 171.5,132.5C 167.167,132.5 162.833,132.5 158.5,132.5C 158.5,132.167 158.5,131.833 158.5,131.5C 162.5,131.5 166.5,131.5 170.5,131.5C 170.5,126.5 170.5,121.5 170.5,116.5 Z"/></g>
<g><path style="opacity:1" fill="#fffefe" d="M 157.5,114.5 C 162.1,114.28 166.433,114.946 170.5,116.5C 170.5,121.5 170.5,126.5 170.5,131.5C 166.5,131.5 162.5,131.5 158.5,131.5C 157.527,129.052 157.194,126.385 157.5,123.5C 157.5,120.5 157.5,117.5 157.5,114.5 Z"/></g>
<g><path style="opacity:1" fill="#fffdfc" d="M 144.5,113.5 C 147.877,113.068 150.877,113.735 153.5,115.5C 153.5,118.5 153.5,121.5 153.5,124.5C 152.532,126.607 152.198,128.941 152.5,131.5C 147.167,131.5 141.833,131.5 136.5,131.5C 135.861,130.903 135.528,130.07 135.5,129C 136.409,125.534 137.076,122.034 137.5,118.5C 138.154,114.684 140.487,113.017 144.5,113.5 Z"/></g>
<g><path style="opacity:1" fill="#74685c" d="M 92.5,110.5 C 93.7384,112.214 94.405,114.214 94.5,116.5C 92.9261,114.898 92.2594,112.898 92.5,110.5 Z"/></g>
<g><path style="opacity:1" fill="#fdfcfb" d="M 124.5,111.5 C 128.442,111.875 132.109,112.875 135.5,114.5C 133.802,119.96 132.469,125.627 131.5,131.5C 128.833,131.5 126.167,131.5 123.5,131.5C 120.364,125.273 117.697,118.773 115.5,112C 118.482,111.502 121.482,111.335 124.5,111.5 Z"/></g>
<g><path style="opacity:1" fill="#676460" d="M 154.5,104.5 C 155.473,106.948 155.806,109.615 155.5,112.5C 153.5,112.5 151.5,112.5 149.5,112.5C 146.833,111.833 144.167,111.167 141.5,110.5C 145.5,110.5 149.5,110.5 153.5,110.5C 153.517,108.435 153.85,106.435 154.5,104.5 Z"/></g>
<g><path style="opacity:1" fill="#fbfaf9" d="M 104.5,110.5 C 110.703,109.57 114.037,112.237 114.5,118.5C 114.259,120.898 114.926,122.898 116.5,124.5C 117.404,125.209 117.737,126.209 117.5,127.5C 117.5,128.833 117.5,130.167 117.5,131.5C 112.5,131.5 107.5,131.5 102.5,131.5C 99.9278,125.107 97.9278,118.441 96.5,111.5C 98.9479,110.527 101.615,110.194 104.5,110.5 Z"/></g>
<g><path style="opacity:1" fill="#fea839" d="M 70.5,88.5 C 71.1239,88.9169 71.4573,89.5836 71.5,90.5C 66.3585,107.204 66.3585,123.87 71.5,140.5C 69.9936,141.747 68.4936,141.747 67,140.5C 57.4202,122.389 58.5869,105.056 70.5,88.5 Z"/></g>
<g><path style="opacity:1" fill="#676460" d="M 137.5,105.5 C 138.807,107.223 138.807,109.057 137.5,111C 134.587,110.71 131.587,110.543 128.5,110.5C 124.007,110.024 119.673,109.358 115.5,108.5C 122.52,108.502 129.52,108.835 136.5,109.5C 136.433,108.041 136.766,106.708 137.5,105.5 Z"/></g>
<g><path style="opacity:1" fill="#eaa34c" d="M 101.5,108.5 C 104.059,108.198 106.393,108.532 108.5,109.5C 106.901,109.232 105.568,109.566 104.5,110.5C 101.615,110.194 98.9479,110.527 96.5,111.5C 95.9569,111.44 95.6236,111.107 95.5,110.5C 97.6309,109.831 99.6309,109.165 101.5,108.5 Z"/></g>
<g><path style="opacity:1" fill="#52493f" d="M 109.5,105.5 C 112.347,107.798 112.013,109.131 108.5,109.5C 106.393,108.532 104.059,108.198 101.5,108.5C 99.5853,108.784 97.9187,108.451 96.5,107.5C 101.294,108.097 105.627,107.43 109.5,105.5 Z"/></g>
<g><path style="opacity:1" fill="#6b5740" d="M 170.5,104.5 C 172.388,106.988 173.055,109.988 172.5,113.5C 167.706,114.097 163.373,113.43 159.5,111.5C 163.135,112.114 166.802,112.448 170.5,112.5C 170.5,109.833 170.5,107.167 170.5,104.5 Z"/></g>
<g><path style="opacity:1" fill="#fbf8f5" d="M 157.5,103.5 C 162.032,103.182 166.366,103.515 170.5,104.5C 170.5,107.167 170.5,109.833 170.5,112.5C 166.802,112.448 163.135,112.114 159.5,111.5C 159.167,111.5 158.833,111.5 158.5,111.5C 157.527,109.052 157.194,106.385 157.5,103.5 Z"/></g>
<g><path style="opacity:1" fill="#fdfbf9" d="M 154.5,103.5 C 154.5,103.833 154.5,104.167 154.5,104.5C 153.85,106.435 153.517,108.435 153.5,110.5C 149.5,110.5 145.5,110.5 141.5,110.5C 140.246,108.643 140.246,106.643 141.5,104.5C 145.783,103.508 150.116,103.174 154.5,103.5 Z"/></g>
<g><path style="opacity:1" fill="#fefdfd" d="M 112.5,103.5 C 121.234,102.865 129.567,103.532 137.5,105.5C 136.766,106.708 136.433,108.041 136.5,109.5C 129.52,108.835 122.52,108.502 115.5,108.5C 113.953,107.232 112.953,105.565 112.5,103.5 Z"/></g>
<g><path style="opacity:1" fill="#f7f7f6" d="M 109.5,105.5 C 105.627,107.43 101.294,108.097 96.5,107.5C 94.8958,106.713 94.2291,105.38 94.5,103.5C 99.1785,103.334 103.845,103.501 108.5,104C 109.056,104.383 109.389,104.883 109.5,105.5 Z"/></g>
<g><path style="opacity:1" fill="#7f6d5c" d="M 88.5,96.5 C 90.2766,99.5046 91.2766,102.838 91.5,106.5C 89.3952,103.592 88.3952,100.258 88.5,96.5 Z"/></g>
<g><path style="opacity:1" fill="#735023" d="M 140.5,100.5 C 131.56,102.472 122.227,103.139 112.5,102.5C 112.5,102.167 112.5,101.833 112.5,101.5C 121.917,101.805 131.25,101.472 140.5,100.5 Z"/></g>
<g><path style="opacity:1" fill="#fea534" d="M 199.5,98.5 C 201.04,104.251 201.706,110.251 201.5,116.5C 201.689,124.954 200.855,133.287 199,141.5C 199.391,127.197 199.557,112.864 199.5,98.5 Z"/></g>
<g><path style="opacity:1" fill="#766450" d="M 170.5,98.5 C 171.492,98.3284 172.158,98.6618 172.5,99.5C 172.5,100.5 172.5,101.5 172.5,102.5C 167.706,103.097 163.373,102.43 159.5,100.5C 163.649,101.08 167.316,100.414 170.5,98.5 Z"/></g>
<g><path style="opacity:1" fill="#5e5c59" d="M 154.5,97.5 C 155.434,98.5676 155.768,99.901 155.5,101.5C 151.298,101.817 147.298,101.483 143.5,100.5C 147.167,100.5 150.833,100.5 154.5,100.5C 154.5,99.5 154.5,98.5 154.5,97.5 Z"/></g>
<g><path style="opacity:1" fill="#61605f" d="M 139.5,96.5 C 140.404,97.209 140.737,98.209 140.5,99.5C 140.5,99.8333 140.5,100.167 140.5,100.5C 131.25,101.472 121.917,101.805 112.5,101.5C 112.5,101.167 112.5,100.833 112.5,100.5C 121.167,100.5 129.833,100.5 138.5,100.5C 138.433,99.0413 138.766,97.7079 139.5,96.5 Z"/></g>
<g><path style="opacity:1" fill="#6c6155" d="M 106.5,96.5 C 107.738,98.2143 108.405,100.214 108.5,102.5C 103.381,103.103 98.7147,102.436 94.5,100.5C 98.5,100.5 102.5,100.5 106.5,100.5C 106.5,99.1667 106.5,97.8333 106.5,96.5 Z"/></g>
<g><path style="opacity:1" fill="#fda432" d="M 162.5,93.5 C 163.694,94.2719 164.694,95.2719 165.5,96.5C 163.167,96.5 160.833,96.5 158.5,96.5C 158.232,98.099 158.566,99.4324 159.5,100.5C 163.373,102.43 167.706,103.097 172.5,102.5C 172.5,101.5 172.5,100.5 172.5,99.5C 176.874,105.135 178.874,111.635 178.5,119C 178.806,124.94 177.473,130.44 174.5,135.5C 169.167,135.5 163.833,135.5 158.5,135.5C 158.5,134.833 158.5,134.167 158.5,133.5C 163.167,133.5 167.833,133.5 172.5,133.5C 172.822,127.642 172.489,121.975 171.5,116.5C 171.167,116.5 170.833,116.5 170.5,116.5C 166.433,114.946 162.1,114.28 157.5,114.5C 158.11,113.609 158.443,112.609 158.5,111.5C 158.833,111.5 159.167,111.5 159.5,111.5C 163.373,113.43 167.706,114.097 172.5,113.5C 173.055,109.988 172.388,106.988 170.5,104.5C 166.366,103.515 162.032,103.182 157.5,103.5C 157.5,100.5 157.5,97.5 157.5,94.5C 159.292,94.634 160.958,94.3007 162.5,93.5 Z"/></g>
<g><path style="opacity:1" fill="#e99229" d="M 140.5,99.5 C 141.167,99.5 141.833,99.5 142.5,99.5C 142.5,100.167 142.833,100.5 143.5,100.5C 147.298,101.483 151.298,101.817 155.5,101.5C 155.167,102.167 154.833,102.833 154.5,103.5C 150.116,103.174 145.783,103.508 141.5,104.5C 140.246,106.643 140.246,108.643 141.5,110.5C 144.167,111.167 146.833,111.833 149.5,112.5C 147.585,112.216 145.919,112.549 144.5,113.5C 140.487,113.017 138.154,114.684 137.5,118.5C 137.672,117.508 137.338,116.842 136.5,116.5C 136.672,115.508 136.338,114.842 135.5,114.5C 132.109,112.875 128.442,111.875 124.5,111.5C 126.099,111.768 127.432,111.434 128.5,110.5C 131.587,110.543 134.587,110.71 137.5,111C 138.807,109.057 138.807,107.223 137.5,105.5C 129.567,103.532 121.234,102.865 112.5,103.5C 112.5,103.167 112.5,102.833 112.5,102.5C 122.227,103.139 131.56,102.472 140.5,100.5C 140.5,100.167 140.5,99.8333 140.5,99.5 Z"/></g>
<g><path style="opacity:1" fill="#fffcf9" d="M 165.5,96.5 C 167.781,96.0773 169.448,96.744 170.5,98.5C 167.316,100.414 163.649,101.08 159.5,100.5C 158.566,99.4324 158.232,98.099 158.5,96.5C 160.833,96.5 163.167,96.5 165.5,96.5 Z"/></g>
<g><path style="opacity:1" fill="#fffbf6" d="M 154.5,97.5 C 154.5,98.5 154.5,99.5 154.5,100.5C 150.833,100.5 147.167,100.5 143.5,100.5C 142.833,100.5 142.5,100.167 142.5,99.5C 142.33,98.1779 142.663,97.0113 143.5,96C 145.333,95.8333 147.167,95.6667 149,95.5C 151.295,95.5465 153.129,96.2132 154.5,97.5 Z"/></g>
<g><path style="opacity:1" fill="#fffcf8" d="M 139.5,96.5 C 138.766,97.7079 138.433,99.0413 138.5,100.5C 129.833,100.5 121.167,100.5 112.5,100.5C 110.914,98.9192 109.914,96.9192 109.5,94.5C 115.137,93.3368 120.804,93.1701 126.5,94C 131.28,93.8916 135.614,94.725 139.5,96.5 Z"/></g>
<g><path style="opacity:1" fill="#fcfbfa" d="M 106.5,96.5 C 106.5,97.8333 106.5,99.1667 106.5,100.5C 102.5,100.5 98.5,100.5 94.5,100.5C 92.3072,98.4777 91.3072,95.8111 91.5,92.5C 95.8461,92.3343 100.179,92.501 104.5,93C 105.823,93.8159 106.489,94.9826 106.5,96.5 Z"/></g>
<g><path style="opacity:1" fill="#fd9b1c" d="M 179.5,142.5 C 179.975,139.918 179.308,137.918 177.5,136.5C 176.791,135.596 175.791,135.263 174.5,135.5C 177.473,130.44 178.806,124.94 178.5,119C 178.874,111.635 176.874,105.135 172.5,99.5C 172.158,98.6618 171.492,98.3284 170.5,98.5C 169.448,96.744 167.781,96.0773 165.5,96.5C 164.694,95.2719 163.694,94.2719 162.5,93.5C 166.985,91.4133 171.651,90.2466 176.5,90C 186.336,103.521 188.836,118.355 184,134.5C 183.14,137.633 181.64,140.3 179.5,142.5 Z"/></g>
<g><path style="opacity:1" fill="#7c6956" d="M 83.5,79.5 C 83.8333,79.5 84.1667,79.5 84.5,79.5C 85.7066,83.7862 86.7066,88.1195 87.5,92.5C 85.1022,88.597 83.7689,84.2637 83.5,79.5 Z"/></g>
<g><path style="opacity:1" fill="#80776e" d="M 81.5,73.5 C 83.0739,75.1016 83.7406,77.1016 83.5,79.5C 81.9261,77.8984 81.2594,75.8984 81.5,73.5 Z"/></g>
<g><path style="opacity:1" fill="#fd9a1b" d="M 179.5,70.5 C 180.468,72.6074 180.802,74.9407 180.5,77.5C 148.149,76.8406 116.149,77.5073 84.5,79.5C 84.1667,79.5 83.8333,79.5 83.5,79.5C 83.7406,77.1016 83.0739,75.1016 81.5,73.5C 81.5,73.1667 81.5,72.8333 81.5,72.5C 114.167,71.8333 146.833,71.1667 179.5,70.5 Z"/></g>
<g><path style="opacity:1" fill="#f1f0ee" d="M 81.5,72.5 C 81.5,72.8333 81.5,73.1667 81.5,73.5C 81.2594,75.8984 81.9261,77.8984 83.5,79.5C 83.7689,84.2637 85.1022,88.597 87.5,92.5C 88.4345,93.5676 88.7678,94.901 88.5,96.5C 88.3952,100.258 89.3952,103.592 91.5,106.5C 92.4345,107.568 92.7678,108.901 92.5,110.5C 92.2594,112.898 92.9261,114.898 94.5,116.5C 95.4345,117.568 95.7678,118.901 95.5,120.5C 95.1706,123.228 95.8372,125.562 97.5,127.5C 97.0181,130.831 98.0181,133.497 100.5,135.5C 119.833,135.5 139.167,135.5 158.5,135.5C 163.833,135.5 169.167,135.5 174.5,135.5C 175.791,135.263 176.791,135.596 177.5,136.5C 177.5,138.167 177.5,139.833 177.5,141.5C 150.5,141.5 123.5,141.5 96.5,141.5C 89.3528,120.88 82.8528,99.8801 77,78.5C 72.2825,77.5776 67.7825,76.2443 63.5,74.5C 63.5,72.8333 63.5,71.1667 63.5,69.5C 69.5821,70.0692 75.5821,71.0692 81.5,72.5 Z"/></g>
<g><path style="opacity:1" fill="#fea73a" d="M 61.5,63.5 C 99.5,64.8333 137.5,64.8333 175.5,63.5C 177.588,65.3356 178.921,67.6689 179.5,70.5C 146.833,71.1667 114.167,71.8333 81.5,72.5C 75.5821,71.0692 69.5821,70.0692 63.5,69.5C 63.5,71.1667 63.5,72.8333 63.5,74.5C 62.596,73.791 62.2627,72.791 62.5,71.5C 60.8333,71.5 59.1667,71.5 57.5,71.5C 57.7936,68.2459 59.127,65.5792 61.5,63.5 Z"/></g>
<g><path style="opacity:1" fill="#feb253" d="M 172.5,59.5 C 173.488,60.795 174.488,62.1283 175.5,63.5C 137.5,64.8333 99.5,64.8333 61.5,63.5C 62.1667,62.1667 63.1667,61.1667 64.5,60.5C 100.671,60.8318 136.671,60.4984 172.5,59.5 Z"/></g>
<g><path style="opacity:1" fill="#feb962" d="M 69.5,55.5 C 102.329,56.4983 135.329,56.8316 168.5,56.5C 170.404,56.7376 171.738,57.7376 172.5,59.5C 136.671,60.4984 100.671,60.8318 64.5,60.5C 65.8333,58.5 67.5,56.8333 69.5,55.5 Z"/></g>
<g><path style="opacity:1" fill="#fec073" d="M 74.5,51.5 C 103.833,52.8333 133.167,52.8333 162.5,51.5C 164.909,52.7007 166.909,54.3674 168.5,56.5C 135.329,56.8316 102.329,56.4983 69.5,55.5C 70.9448,53.9373 72.6115,52.604 74.5,51.5 Z"/></g>
<g><path style="opacity:1" fill="#fec986" d="M 84.5,46.5 C 107.167,47.8333 129.833,47.8333 152.5,46.5C 156.112,47.6395 159.446,49.3061 162.5,51.5C 133.167,52.8333 103.833,52.8333 74.5,51.5C 77.8333,49.8333 81.1667,48.1667 84.5,46.5 Z"/></g>
<g><path style="opacity:1" fill="#ffd29c" d="M 152.5,46.5 C 129.833,47.8333 107.167,47.8333 84.5,46.5C 107.152,38.5502 129.819,38.5502 152.5,46.5 Z"/></g>
<g><path style="opacity:0.541" fill="#b3b3b3" d="M 2.5,149.5 C 6.19401,160.219 10.8607,170.552 16.5,180.5C 20.1336,186.79 24.1336,192.79 28.5,198.5C 31.8983,203.406 35.8983,207.906 40.5,212C 47.2808,216.285 53.6141,221.118 59.5,226.5C 56.8333,226.5 54.1667,226.5 51.5,226.5C 44.5581,218.726 37.0581,211.393 29,204.5C 25.5505,200.592 22.8839,196.258 21,191.5C 17.2857,185.309 13.2857,179.309 9,173.5C 6.78849,167.509 4.78849,161.509 3,155.5C 2.50454,153.527 2.33788,151.527 2.5,149.5 Z"/></g>
<g><path style="opacity:1" fill="#e8e8e8" d="M 46.5,181.5 C 65.0517,201.607 88.0517,212.274 115.5,213.5C 118.477,213.902 121.143,214.902 123.5,216.5C 110.06,217.204 97.0603,215.204 84.5,210.5C 75.9116,206.871 67.9116,202.205 60.5,196.5C 55.1338,192.134 50.4671,187.134 46.5,181.5 Z"/></g>
<g><path style="opacity:1" fill="#6a6a6c" d="M 481.5,205.5 C 477.16,208.337 472.494,210.67 467.5,212.5C 464.243,210.914 461.576,208.581 459.5,205.5C 460.602,204.824 461.602,204.158 462.5,203.5C 465.594,202.117 468.594,200.45 471.5,198.5C 475.456,196.212 478.789,193.212 481.5,189.5C 482.496,189.586 483.329,189.252 484,188.5C 486.35,190.683 488.517,193.016 490.5,195.5C 487.478,198.853 484.478,202.187 481.5,205.5 Z"/></g>
<g><path style="opacity:1" fill="#808183" d="M 60.5,196.5 C 67.9116,202.205 75.9116,206.871 84.5,210.5C 83.1667,212.5 81.8333,214.5 80.5,216.5C 72.5699,213.868 65.2366,210.202 58.5,205.5C 59.1667,202.5 59.8333,199.5 60.5,196.5 Z"/></g>
<g><path style="opacity:1" fill="#747577" d="M 189.5,197.5 C 180.606,205.787 170.273,211.787 158.5,215.5C 157.833,213.5 157.167,211.5 156.5,209.5C 167.944,204.268 178.278,197.268 187.5,188.5C 188.167,191.642 188.834,194.642 189.5,197.5 Z"/></g>
<g><path style="opacity:0.921" fill="#878889" d="M 462.5,203.5 C 461.602,204.158 460.602,204.824 459.5,205.5C 461.576,208.581 464.243,210.914 467.5,212.5C 472.494,210.67 477.16,208.337 481.5,205.5C 478.215,209.276 474.215,212.11 469.5,214C 465.532,214.942 461.532,215.775 457.5,216.5C 375.169,217.5 292.836,217.833 210.5,217.5C 233.358,216.912 256.358,216.079 279.5,215C 276.721,211.545 273.388,208.879 269.5,207C 251.662,206.832 233.995,206.332 216.5,205.5C 239.167,205.5 261.833,205.5 284.5,205.5C 293.896,204.328 301.563,207.495 307.5,215C 308.5,215.333 309.5,215.667 310.5,216C 330.5,216.167 350.5,216.333 370.5,216.5C 392.535,216.633 414.535,216.133 436.5,215C 433.208,211.194 429.541,208.027 425.5,205.5C 434.682,205.827 443.682,205.493 452.5,204.5C 455.86,204.384 459.193,204.051 462.5,203.5 Z"/></g>
<g><path style="opacity:1" fill="#595a5c" d="M 201.5,205.5 C 203.833,205.5 206.167,205.5 208.5,205.5C 209.952,206.302 211.618,206.802 213.5,207C 227.5,207.333 241.5,207.667 255.5,208C 257.833,210.333 260.167,212.667 262.5,215C 244.833,215.333 227.167,215.667 209.5,216C 201.382,216.06 193.382,216.894 185.5,218.5C 190.809,214.197 196.142,209.863 201.5,205.5 Z"/></g>
<g><path style="opacity:1" fill="#6d6e70" d="M 208.5,205.5 C 211.167,205.5 213.833,205.5 216.5,205.5C 233.995,206.332 251.662,206.832 269.5,207C 273.388,208.879 276.721,211.545 279.5,215C 256.358,216.079 233.358,216.912 210.5,217.5C 201.915,217.447 193.582,218.78 185.5,221.5C 177.908,222.684 177.908,221.684 185.5,218.5C 193.382,216.894 201.382,216.06 209.5,216C 227.167,215.667 244.833,215.333 262.5,215C 260.167,212.667 257.833,210.333 255.5,208C 241.5,207.667 227.5,207.333 213.5,207C 211.618,206.802 209.952,206.302 208.5,205.5 Z"/></g>
<g><path style="opacity:1" fill="#a4a5a7" d="M 284.5,205.5 C 290.833,205.5 297.167,205.5 303.5,205.5C 307.204,207.091 311.204,207.924 315.5,208C 317.833,210.333 320.167,212.667 322.5,215C 332.494,215.5 342.494,215.666 352.5,215.5C 361.167,215.5 369.833,215.5 378.5,215.5C 387.839,215.666 397.173,215.5 406.5,215C 403.208,211.194 399.541,208.027 395.5,205.5C 405.5,205.5 415.5,205.5 425.5,205.5C 429.541,208.027 433.208,211.194 436.5,215C 414.535,216.133 392.535,216.633 370.5,216.5C 350.5,216.333 330.5,216.167 310.5,216C 309.5,215.667 308.5,215.333 307.5,215C 301.563,207.495 293.896,204.328 284.5,205.5 Z"/></g>
<g><path style="opacity:1" fill="#c2c3c4" d="M 303.5,205.5 C 334.167,205.5 364.833,205.5 395.5,205.5C 399.541,208.027 403.208,211.194 406.5,215C 397.173,215.5 387.839,215.666 378.5,215.5C 376.038,212.536 373.371,209.703 370.5,207C 361.833,206.333 353.167,206.333 344.5,207C 347.371,209.703 350.038,212.536 352.5,215.5C 342.494,215.666 332.494,215.5 322.5,215C 320.167,212.667 317.833,210.333 315.5,208C 311.204,207.924 307.204,207.091 303.5,205.5 Z"/></g>
<g><path style="opacity:1" fill="#dfe0e1" d="M 378.5,215.5 C 369.833,215.5 361.167,215.5 352.5,215.5C 350.038,212.536 347.371,209.703 344.5,207C 353.167,206.333 361.833,206.333 370.5,207C 373.371,209.703 376.038,212.536 378.5,215.5 Z"/></g>
<g><path style="opacity:0.816" fill="#9a9a9a" d="M 490.5,49.5 C 492.833,51.1667 494.833,53.1667 496.5,55.5C 497.798,59.0878 499.464,62.4211 501.5,65.5C 501.697,69.3704 502.531,73.0371 504,76.5C 504.667,109.833 504.667,143.167 504,176.5C 503.408,180.276 502.408,183.943 501,187.5C 496.005,195.309 490.171,202.475 483.5,209C 480.187,210.968 476.854,212.968 473.5,215C 469.354,216.937 465.021,218.271 460.5,219C 375.167,219.333 289.833,219.667 204.5,220C 203.263,220.232 202.263,220.732 201.5,221.5C 201.167,221.5 200.833,221.5 200.5,221.5C 197.813,221.336 195.146,221.503 192.5,222C 175.749,231.696 157.749,238.029 138.5,241C 122.359,242.186 106.359,241.186 90.5,238C 88.6854,237.243 87.0188,236.41 85.5,235.5C 108.92,240.966 132.254,240.799 155.5,235C 165.678,230.741 175.678,226.241 185.5,221.5C 193.582,218.78 201.915,217.447 210.5,217.5C 292.836,217.833 375.169,217.5 457.5,216.5C 461.532,215.775 465.532,214.942 469.5,214C 474.215,212.11 478.215,209.276 481.5,205.5C 487.591,201.911 492.091,196.911 495,190.5C 499.205,187.253 501.538,182.92 502,177.5C 502.667,144.5 502.667,111.5 502,78.5C 501.802,76.6183 501.302,74.9516 500.5,73.5C 498.522,64.8917 495.189,56.8917 490.5,49.5 Z"/></g>
<g><path style="opacity:0.529" fill="#b6b6b6" d="M 501.5,65.5 C 504.455,68.0906 505.788,71.4239 505.5,75.5C 506.792,109.822 506.792,144.156 505.5,178.5C 501.015,192.848 493.015,205.015 481.5,215C 475.4,217.588 469.067,219.588 462.5,221C 375.501,221.5 288.501,221.667 201.5,221.5C 202.263,220.732 203.263,220.232 204.5,220C 289.833,219.667 375.167,219.333 460.5,219C 465.021,218.271 469.354,216.937 473.5,215C 476.854,212.968 480.187,210.968 483.5,209C 490.171,202.475 496.005,195.309 501,187.5C 502.408,183.943 503.408,180.276 504,176.5C 504.667,143.167 504.667,109.833 504,76.5C 502.531,73.0371 501.697,69.3704 501.5,65.5 Z"/></g>
<g><path style="opacity:0.337" fill="#cecece" d="M 505.5,75.5 C 506.29,76.6085 506.79,77.9419 507,79.5C 507.667,113.167 507.667,146.833 507,180.5C 505.203,186.753 502.869,192.753 500,198.5C 493.75,204.078 488.25,210.245 483.5,217C 477.357,219.603 471.023,221.603 464.5,223C 377.167,223.333 289.833,223.667 202.5,224C 196.191,228.825 189.525,233.158 182.5,237C 178.167,238.667 173.833,240.333 169.5,242C 161.234,243.25 153.234,245.25 145.5,248C 128.631,249.303 111.964,248.137 95.5,244.5C 92.3926,244.649 89.3926,244.149 86.5,243C 78.2311,240.197 70.5645,236.363 63.5,231.5C 77.9204,236.251 92.5871,240.084 107.5,243C 128.379,245.228 148.712,243.228 168.5,237C 179.144,231.456 189.81,226.29 200.5,221.5C 200.833,221.5 201.167,221.5 201.5,221.5C 288.501,221.667 375.501,221.5 462.5,221C 469.067,219.588 475.4,217.588 481.5,215C 493.015,205.015 501.015,192.848 505.5,178.5C 506.792,144.156 506.792,109.822 505.5,75.5 Z"/></g>
<g><path style="opacity:0.243" fill="#e2e2e2" d="M 496.5,55.5 C 501.394,59.406 504.728,64.406 506.5,70.5C 506.814,73.9466 507.648,77.2799 509,80.5C 509.954,116.863 509.621,153.196 508,189.5C 500.251,208.591 486.418,220.425 466.5,225C 380.167,225.333 293.833,225.667 207.5,226C 199.502,232.164 190.502,236.497 180.5,239C 176.251,241.194 171.918,243.194 167.5,245C 145.01,250.188 122.343,250.855 99.5,247C 97.9336,246.392 96.6002,245.558 95.5,244.5C 111.964,248.137 128.631,249.303 145.5,248C 153.234,245.25 161.234,243.25 169.5,242C 173.833,240.333 178.167,238.667 182.5,237C 189.525,233.158 196.191,228.825 202.5,224C 289.833,223.667 377.167,223.333 464.5,223C 471.023,221.603 477.357,219.603 483.5,217C 488.25,210.245 493.75,204.078 500,198.5C 502.869,192.753 505.203,186.753 507,180.5C 507.667,146.833 507.667,113.167 507,79.5C 506.79,77.9419 506.29,76.6085 505.5,75.5C 505.788,71.4239 504.455,68.0906 501.5,65.5C 499.464,62.4211 497.798,59.0878 496.5,55.5 Z"/></g>
<g><path style="opacity:1" fill="#868789" d="M 211.5,185.5 C 213.415,185.216 215.081,185.549 216.5,186.5C 212.325,192.832 207.659,198.832 202.5,204.5C 201.833,204.5 201.5,204.833 201.5,205.5C 196.142,209.863 190.809,214.197 185.5,218.5C 177.908,221.684 177.908,222.684 185.5,221.5C 175.678,226.241 165.678,230.741 155.5,235C 132.254,240.799 108.92,240.966 85.5,235.5C 76.8283,232.498 68.1617,229.498 59.5,226.5C 53.6141,221.118 47.2808,216.285 40.5,212C 35.8983,207.906 31.8983,203.406 28.5,198.5C 32.631,202.13 36.631,205.963 40.5,210C 45.4889,210.499 50.4889,210.666 55.5,210.5C 68.2411,218.201 81.9078,223.701 96.5,227C 142.628,234.019 180.961,220.186 211.5,185.5 Z"/></g>
<g><path style="opacity:1" fill="#626365" d="M 156.5,209.5 C 157.167,211.5 157.833,213.5 158.5,215.5C 151.882,218.537 144.882,220.704 137.5,222C 117.849,225.365 98.8492,223.532 80.5,216.5C 81.8333,214.5 83.1667,212.5 84.5,210.5C 97.0603,215.204 110.06,217.204 123.5,216.5C 134.865,215.774 145.865,213.44 156.5,209.5 Z"/></g>
<g><path style="opacity:0.048" fill="#f6f6f6" d="M 506.5,70.5 C 508.224,73.3448 509.558,76.3448 510.5,79.5C 510.5,115.167 510.5,150.833 510.5,186.5C 504.021,208.143 489.688,221.31 467.5,226C 381.5,226.333 295.5,226.667 209.5,227C 189.156,240.849 166.823,249.015 142.5,251.5C 134.5,251.5 126.5,251.5 118.5,251.5C 93.8362,249.28 71.5029,240.947 51.5,226.5C 54.1667,226.5 56.8333,226.5 59.5,226.5C 60.1355,228.795 61.4689,230.461 63.5,231.5C 70.5645,236.363 78.2311,240.197 86.5,243C 89.3926,244.149 92.3926,244.649 95.5,244.5C 96.6002,245.558 97.9336,246.392 99.5,247C 122.343,250.855 145.01,250.188 167.5,245C 171.918,243.194 176.251,241.194 180.5,239C 190.502,236.497 199.502,232.164 207.5,226C 293.833,225.667 380.167,225.333 466.5,225C 486.418,220.425 500.251,208.591 508,189.5C 509.621,153.196 509.954,116.863 509,80.5C 507.648,77.2799 506.814,73.9466 506.5,70.5 Z"/></g>
<g><path style="opacity:0.65" fill="#acacac" d="M 200.5,221.5 C 189.81,226.29 179.144,231.456 168.5,237C 148.712,243.228 128.379,245.228 107.5,243C 92.5871,240.084 77.9204,236.251 63.5,231.5C 61.4689,230.461 60.1355,228.795 59.5,226.5C 68.1617,229.498 76.8283,232.498 85.5,235.5C 87.0188,236.41 88.6854,237.243 90.5,238C 106.359,241.186 122.359,242.186 138.5,241C 157.749,238.029 175.749,231.696 192.5,222C 195.146,221.503 197.813,221.336 200.5,221.5 Z"/></g>
</svg>
